<?xml version="1.0" encoding="UTF-8"?>
<svg version="1.1" xmlns="http://www.w3.org/2000/svg" width="600" height="600">
<path d="M0 0 C1.26780304 0.00140488 1.26780304 0.00140488 2.56121826 0.00283813 C15.32934979 0.03348648 27.91422418 0.28944351 40.5625 2.1875 C41.59358887 2.33815918 42.62467773 2.48881836 43.68701172 2.64404297 C70.80438896 6.7322674 96.43326899 14.24539489 121.5625 25.1875 C122.41102539 25.55456055 123.25955078 25.92162109 124.13378906 26.29980469 C151.90780253 38.46693764 176.86555327 55.68718284 199.22265625 76.06640625 C201.35054815 77.99536335 203.50970859 79.87786353 205.6875 81.75 C212.54483155 87.73809234 218.61581316 94.31102249 224.5625 101.1875 C225.37883911 102.12783081 225.37883911 102.12783081 226.21166992 103.0871582 C236.02508535 114.47418383 244.53378507 126.48744191 252.5625 139.1875 C253.02108398 139.90873047 253.47966797 140.62996094 253.95214844 141.37304688 C266.69205979 161.60645643 276.17914092 183.49219008 283.5625 206.1875 C283.85350586 207.07856445 284.14451172 207.96962891 284.44433594 208.88769531 C293.4977017 237.15680326 296.98315935 266.18837291 296.875 295.75 C296.87284485 296.81053589 296.8706897 297.87107178 296.86846924 298.96374512 C296.81759782 314.56568705 296.45727225 329.81321495 293.5625 345.1875 C293.25650879 346.85401611 293.25650879 346.85401611 292.94433594 348.55419922 C283.85567669 396.87490942 264.04696334 441.56261828 233.5625 480.1875 C232.41201172 481.65703125 232.41201172 481.65703125 231.23828125 483.15625 C218.90270666 498.57018162 205.04899094 512.94618886 189.5625 525.1875 C188.45369706 526.10692984 187.34702842 527.02893793 186.2421875 527.953125 C149.21142336 558.6796969 103.0509604 579.02467952 55.9375 587.9375 C54.89029785 588.13633789 53.8430957 588.33517578 52.76416016 588.54003906 C35.65412209 591.60507277 18.67183974 592.59831408 1.3125 592.5625 C-0.18802917 592.56168427 -0.18802917 592.56168427 -1.71887207 592.56085205 C-19.26083854 592.51727429 -36.16462673 591.4015192 -53.4375 588.1875 C-54.53787598 587.98382812 -55.63825195 587.78015625 -56.77197266 587.5703125 C-119.60275061 575.44392557 -180.90990625 541.37415927 -222.4375 492.1875 C-222.92331543 491.62998047 -223.40913086 491.07246094 -223.90966797 490.49804688 C-238.5719306 473.66277761 -251.11184684 454.98050267 -261.4375 435.1875 C-261.93854248 434.23883057 -261.93854248 434.23883057 -262.44970703 433.27099609 C-284.66129165 391.00007109 -295.69789196 344.37504061 -295.625 296.6875 C-295.62406342 295.89214844 -295.62312683 295.09679687 -295.62216187 294.27734375 C-295.59043803 281.81534621 -295.27912862 269.53356372 -293.4375 257.1875 C-293.28152344 256.13755859 -293.12554687 255.08761719 -292.96484375 254.00585938 C-290.35418188 237.03655721 -286.62120208 220.55506672 -281.4375 204.1875 C-281.15068359 203.2790332 -280.86386719 202.37056641 -280.56835938 201.43457031 C-269.71357884 167.85335874 -251.86075645 136.34925592 -229.4375 109.1875 C-228.73367187 108.29804687 -228.02984375 107.40859375 -227.3046875 106.4921875 C-220.97270976 98.69428566 -214.01670617 91.55107331 -206.9375 84.4375 C-206.45312469 83.9479483 -205.96874939 83.45839661 -205.46969604 82.95401001 C-198.80890983 76.23721888 -191.8810345 70.0308194 -184.4375 64.1875 C-183.75880859 63.64947754 -183.08011719 63.11145508 -182.38085938 62.55712891 C-138.7881749 28.34354629 -85.52586217 6.91526166 -30.4375 1.1875 C-29.56311279 1.09251221 -28.68872559 0.99752441 -27.7878418 0.8996582 C-18.53375352 0.00178418 -9.28853297 -0.01329889 0 0 Z " fill="#1A1A1A" transform="translate(300.4375,4.8125)"/>
<path d="M0 0 C1.64984642 0.00424484 1.64984642 0.00424484 3.33302307 0.00857544 C6.82759728 0.0197227 10.32191019 0.04481752 13.81640625 0.0703125 C16.19335566 0.08034934 18.57030911 0.08947396 20.94726562 0.09765625 C26.75790085 0.11964419 32.56838487 0.1530674 38.37890625 0.1953125 C38.37890625 0.8553125 38.37890625 1.5153125 38.37890625 2.1953125 C39.43207031 2.15664062 40.48523438 2.11796875 41.5703125 2.078125 C47.56842698 2.08076909 53.40964198 3.11245883 59.31640625 4.0703125 C60.46431641 4.24433594 61.61222656 4.41835937 62.79492188 4.59765625 C63.88353516 4.77167969 64.97214844 4.94570312 66.09375 5.125 C67.0849585 5.28210449 68.07616699 5.43920898 69.09741211 5.60107422 C69.85030518 5.79717285 70.60319824 5.99327148 71.37890625 6.1953125 C71.70890625 6.8553125 72.03890625 7.5153125 72.37890625 8.1953125 C75.03312204 8.78317868 77.63549942 9.27359682 80.31640625 9.6953125 C88.11149139 10.92789764 88.11149139 10.92789764 90.37890625 13.1953125 C92.36247108 13.90939584 94.36206062 14.58148992 96.37890625 15.1953125 C96.37890625 15.8553125 96.37890625 16.5153125 96.37890625 17.1953125 C96.89453125 17.2984375 97.41015625 17.4015625 97.94140625 17.5078125 C104.56333968 19.37553731 111.66235194 22.10508101 115.37890625 28.1953125 C116.35172501 33.47282016 115.83793339 38.88462354 115.37890625 44.1953125 C114.71890625 44.1953125 114.05890625 44.1953125 113.37890625 44.1953125 C113.38676147 45.08839111 113.38676147 45.08839111 113.39477539 45.99951172 C113.41552624 48.68976797 113.42856032 51.38000739 113.44140625 54.0703125 C113.44978516 55.00746094 113.45816406 55.94460937 113.46679688 56.91015625 C113.47163086 58.25400391 113.47163086 58.25400391 113.4765625 59.625 C113.48441772 60.86612549 113.48441772 60.86612549 113.49243164 62.13232422 C113.37890625 64.1953125 113.37890625 64.1953125 112.37890625 66.1953125 C111.99260586 68.23114373 111.64293841 70.2740443 111.31640625 72.3203125 C111.13980469 73.41601562 110.96320313 74.51171875 110.78125 75.640625 C110.64847656 76.48367187 110.51570313 77.32671875 110.37890625 78.1953125 C109.38890625 78.1953125 108.39890625 78.1953125 107.37890625 78.1953125 C107.04890625 79.1853125 106.71890625 80.1753125 106.37890625 81.1953125 C104.31758483 81.30396195 102.25459304 81.38119571 100.19140625 81.4453125 C99.04285156 81.49171875 97.89429688 81.538125 96.7109375 81.5859375 C92.74840991 81.12139734 91.27869845 79.83848592 88.37890625 77.1953125 C87.32703125 76.97875 87.32703125 76.97875 86.25390625 76.7578125 C84.37890625 76.1953125 84.37890625 76.1953125 82.62890625 74.0078125 C81.22063641 70.83920535 81.13961401 68.62516795 81.37890625 65.1953125 C80.71890625 65.1953125 80.05890625 65.1953125 79.37890625 65.1953125 C77.3372114 62.28982368 76.37890625 60.79389204 76.37890625 57.1953125 C75.78078125 57.1540625 75.18265625 57.1128125 74.56640625 57.0703125 C71.29851279 55.76315512 70.89535455 53.28886704 69.37890625 50.1953125 C66.44418772 47.41109235 64.2934936 46.03415265 60.37890625 45.1953125 C60.04890625 44.5353125 59.71890625 43.8753125 59.37890625 43.1953125 C55.8050396 40.73988614 52.25184628 39.36000064 48.12890625 38.0703125 C42.47499166 36.29139791 42.47499166 36.29139791 41.37890625 35.1953125 C33.51581847 32.94150766 25.95806902 32.88790888 17.81640625 32.9453125 C16.82285629 32.9484697 16.82285629 32.9484697 15.80923462 32.95169067 C-0.12573377 31.957753 -0.12573377 31.957753 -14.62109375 36.1953125 C-16.95406808 36.23624187 -19.288146 36.23772973 -21.62109375 36.1953125 C-21.62109375 36.8553125 -21.62109375 37.5153125 -21.62109375 38.1953125 C-26.07609375 38.6903125 -26.07609375 38.6903125 -30.62109375 39.1953125 C-30.95109375 40.1853125 -31.28109375 41.1753125 -31.62109375 42.1953125 C-33.32233864 42.98050245 -35.03010614 43.75689722 -36.77734375 44.43359375 C-38.83471246 45.22674744 -38.83471246 45.22674744 -41.37109375 46.8828125 C-43.62109375 48.1953125 -43.62109375 48.1953125 -46.62109375 48.1953125 C-46.62109375 48.8553125 -46.62109375 49.5153125 -46.62109375 50.1953125 C-54.62109375 54.1953125 -54.62109375 54.1953125 -56.74609375 55.0703125 C-59.11902306 56.49407009 -59.7422055 57.82063137 -60.87109375 60.3203125 C-61.37382812 61.40699219 -61.37382812 61.40699219 -61.88671875 62.515625 C-62.25023437 63.34707031 -62.25023437 63.34707031 -62.62109375 64.1953125 C-63.61109375 64.1953125 -64.60109375 64.1953125 -65.62109375 64.1953125 C-65.82734375 65.0203125 -66.03359375 65.8453125 -66.24609375 66.6953125 C-68.29077695 71.89996065 -71.72179573 75.87394825 -75.23828125 80.171875 C-76.6946115 82.30288933 -77.26536022 83.93808084 -77.80859375 86.4453125 C-78.07671875 87.6828125 -78.34484375 88.9203125 -78.62109375 90.1953125 C-79.61109375 90.1953125 -80.60109375 90.1953125 -81.62109375 90.1953125 C-81.62109375 92.5053125 -81.62109375 94.8153125 -81.62109375 97.1953125 C-82.28109375 97.1953125 -82.94109375 97.1953125 -83.62109375 97.1953125 C-83.95109375 99.8353125 -84.28109375 102.4753125 -84.62109375 105.1953125 C-85.61109375 105.1953125 -86.60109375 105.1953125 -87.62109375 105.1953125 C-87.95109375 109.8153125 -88.28109375 114.4353125 -88.62109375 119.1953125 C-89.28109375 119.1953125 -89.94109375 119.1953125 -90.62109375 119.1953125 C-90.5271201 125.17295372 -90.42093038 131.15021075 -90.30371094 137.12744141 C-90.26556959 139.15830641 -90.23069155 141.18923555 -90.19921875 143.22021484 C-90.15324435 146.14964631 -90.09530484 149.07864183 -90.03515625 152.0078125 C-90.02360504 152.90709473 -90.01205383 153.80637695 -90.00015259 154.73291016 C-89.87381776 160.20276651 -89.09506036 164.92715252 -87.62109375 170.1953125 C-87.44884409 172.00393388 -87.31793544 173.81742824 -87.24609375 175.6328125 C-86.84642572 180.93951572 -85.54771808 187.26868817 -81.62109375 191.1953125 C-81.53859375 192.3709375 -81.45609375 193.5465625 -81.37109375 194.7578125 C-80.88866876 198.94377702 -79.44396184 201.53898259 -77.08203125 204.97265625 C-74.80122748 208.44264916 -73.01215133 212.16822291 -71.1484375 215.875 C-69.4665711 218.43006047 -68.32849843 218.95256937 -65.62109375 220.1953125 C-64.85828452 221.85359343 -64.10602212 223.51873256 -63.44140625 225.21875 C-58.546905 237.01216731 -48.90017305 245.74698626 -38.24609375 252.2578125 C-37.37984375 252.8971875 -36.51359375 253.5365625 -35.62109375 254.1953125 C-35.62109375 255.1853125 -35.62109375 256.1753125 -35.62109375 257.1953125 C-34.29078125 257.1334375 -34.29078125 257.1334375 -32.93359375 257.0703125 C-29.64832362 257.19428496 -27.5666008 257.80919154 -24.62109375 259.1953125 C-24.62109375 260.1853125 -24.62109375 261.1753125 -24.62109375 262.1953125 C-23.41453125 262.1025 -23.41453125 262.1025 -22.18359375 262.0078125 C-18.41355876 262.20623539 -15.65336766 263.11358728 -12.13452148 264.36694336 C-3.49105642 267.21563466 5.47954274 267.73092687 14.50390625 268.3203125 C16.36789062 268.44986328 16.36789062 268.44986328 18.26953125 268.58203125 C21.30564414 268.79222368 24.34202936 268.99651883 27.37890625 269.1953125 C27.37890625 268.5353125 27.37890625 267.8753125 27.37890625 267.1953125 C28.43851563 267.14632813 29.498125 267.09734375 30.58984375 267.046875 C31.97789122 266.97184541 33.36591076 266.89629765 34.75390625 266.8203125 C35.80191406 266.77390625 35.80191406 266.77390625 36.87109375 266.7265625 C41.08076452 266.60031752 41.08076452 266.60031752 44.37890625 264.1953125 C46.76171875 263.78125 46.76171875 263.78125 49.50390625 263.5703125 C50.86902344 263.45816406 50.86902344 263.45816406 52.26171875 263.34375 C52.96039063 263.29476563 53.6590625 263.24578125 54.37890625 263.1953125 C54.37890625 262.5353125 54.37890625 261.8753125 54.37890625 261.1953125 C55.11496094 260.92976563 55.85101563 260.66421875 56.609375 260.390625 C58.07310547 259.86082031 58.07310547 259.86082031 59.56640625 259.3203125 C60.52933594 258.97226562 61.49226562 258.62421875 62.484375 258.265625 C63.91716797 257.73582031 63.91716797 257.73582031 65.37890625 257.1953125 C66.25804687 256.91042969 67.1371875 256.62554687 68.04296875 256.33203125 C70.89606369 254.94365227 71.89204955 253.55370322 73.56640625 250.8828125 C74.05496094 250.12355469 74.54351562 249.36429688 75.046875 248.58203125 C77.70903558 243.81200159 78.65203101 239.59495714 79.37890625 234.1953125 C79.70890625 233.8653125 80.03890625 233.5353125 80.37890625 233.1953125 C80.5365503 231.41661524 80.62991302 229.63212774 80.6953125 227.84765625 C80.73720703 226.76806641 80.77910156 225.68847656 80.82226562 224.57617188 C80.86158203 223.43986328 80.90089844 222.30355469 80.94140625 221.1328125 C80.98458984 219.99263672 81.02777344 218.85246094 81.07226562 217.67773438 C81.17873464 214.85039055 81.28074832 212.02295512 81.37890625 209.1953125 C80.71890625 209.1953125 80.05890625 209.1953125 79.37890625 209.1953125 C79.21390625 208.1228125 79.04890625 207.0503125 78.87890625 205.9453125 C78.19135751 203.50942554 77.73692869 202.45808126 75.67578125 200.9453125 C73.60658366 199.93440681 71.51474619 199.05524806 69.37890625 198.1953125 C68.34765625 197.6384375 67.31640625 197.0815625 66.25390625 196.5078125 C63.26014475 195.14109529 60.63452225 194.58288583 57.37890625 194.1953125 C57.04890625 193.2053125 56.71890625 192.2153125 56.37890625 191.1953125 C54.51868553 189.96254123 54.51868553 189.96254123 52.31640625 189.0078125 C51.01703125 188.4096875 49.71765625 187.8115625 48.37890625 187.1953125 C48.37890625 182.5753125 48.37890625 177.9553125 48.37890625 173.1953125 C54.0041206 170.94522676 54.0041206 170.94522676 57.45266724 170.94134521 C58.22930725 170.93570557 59.00594727 170.93006592 59.80612183 170.92425537 C60.64370026 170.92830383 61.48127869 170.93235229 62.34423828 170.93652344 C63.23747803 170.9330188 64.13071777 170.92951416 65.05102539 170.92590332 C67.99633611 170.91711805 70.94140569 170.92292287 73.88671875 170.9296875 C75.93504889 170.92834017 77.98337872 170.92639907 80.03170776 170.92388916 C84.32048595 170.92094244 88.60918074 170.92522194 92.89794922 170.93457031 C98.40058063 170.94597895 103.90301725 170.93939355 109.40564156 170.92742538 C113.63318354 170.92020689 117.86067914 170.92249442 122.0882225 170.92768097 C124.1176544 170.92901675 126.14709048 170.92737225 128.17651749 170.92272186 C131.00858007 170.91765528 133.84032446 170.92536813 136.67236328 170.93652344 C137.51399017 170.93247498 138.35561707 170.92842651 139.2227478 170.92425537 C143.12479638 170.95279775 145.05765813 170.98114709 148.37890625 173.1953125 C148.8125 176.09375 148.8125 176.09375 148.81640625 179.5703125 C148.84541016 181.28347656 148.84541016 181.28347656 148.875 183.03125 C148.37890625 186.1953125 148.37890625 186.1953125 146.6015625 188.609375 C144.37890625 190.1953125 144.37890625 190.1953125 140.37890625 190.1953125 C140.37890625 190.8553125 140.37890625 191.5153125 140.37890625 192.1953125 C139.05890625 192.1953125 137.73890625 192.1953125 136.37890625 192.1953125 C136.37890625 193.1853125 136.37890625 194.1753125 136.37890625 195.1953125 C134.89390625 196.1853125 134.89390625 196.1853125 133.37890625 197.1953125 C130.41931143 205.0524686 130.75056618 214.32283303 130.31640625 222.6328125 C130.27565979 223.36722565 130.23491333 224.10163879 130.19293213 224.85830688 C129.08383362 244.95286244 128.73515573 265.07590588 128.37890625 285.1953125 C125.42226106 286.6736351 122.63660888 286.25564033 119.37890625 286.1953125 C119.37890625 286.8553125 119.37890625 287.5153125 119.37890625 288.1953125 C118.40449585 288.21718628 118.40449585 288.21718628 117.41040039 288.23950195 C114.42018685 288.31472912 111.43100028 288.41113862 108.44140625 288.5078125 C107.41982422 288.53037109 106.39824219 288.55292969 105.34570312 288.57617188 C98.81992432 288.80551234 93.44906574 289.83844337 87.37890625 292.1953125 C81.39679443 293.98994605 75.77548964 294.51594013 69.546875 294.91015625 C66.82492483 295.15516533 64.39184208 295.58056865 61.75390625 296.2578125 C56.65082159 297.54071088 51.60796796 297.37124355 46.37890625 297.1953125 C46.37890625 297.8553125 46.37890625 298.5153125 46.37890625 299.1953125 C42.48472763 299.70877053 38.58837089 300.2034841 34.69140625 300.6953125 C33.60794922 300.83839844 32.52449219 300.98148437 31.40820312 301.12890625 C16.08477219 303.03865135 1.3537599 301.69820121 -13.93359375 300.1953125 C-15.94590963 300.00204197 -17.95827916 299.8093293 -19.97070312 299.6171875 C-24.85480879 299.14965515 -29.73812731 298.67459081 -34.62109375 298.1953125 C-35.11609375 296.7103125 -35.11609375 296.7103125 -35.62109375 295.1953125 C-36.75546875 295.0509375 -37.88984375 294.9065625 -39.05859375 294.7578125 C-42.62109375 294.1953125 -42.62109375 294.1953125 -43.62109375 293.1953125 C-44.67296875 293.0921875 -45.72484375 292.9890625 -46.80859375 292.8828125 C-50.62109375 292.1953125 -50.62109375 292.1953125 -53.49609375 290.2578125 C-56.98161963 287.95736542 -59.70683833 287.35376649 -63.765625 286.6875 C-64.68408203 286.44386719 -64.68408203 286.44386719 -65.62109375 286.1953125 C-65.95109375 285.5353125 -66.28109375 284.8753125 -66.62109375 284.1953125 C-68.37387493 283.43561262 -68.37387493 283.43561262 -70.43359375 282.8203125 C-74.06573645 281.5513286 -75.98043303 280.02459185 -78.62109375 277.1953125 C-80.7338972 276.56238867 -80.7338972 276.56238867 -82.62109375 276.1953125 C-82.95109375 275.5353125 -83.28109375 274.8753125 -83.62109375 274.1953125 C-84.92046875 273.855 -84.92046875 273.855 -86.24609375 273.5078125 C-90.22278381 271.96132192 -92.14145528 269.93821157 -95.01171875 266.87109375 C-96.64992103 265.07039323 -96.64992103 265.07039323 -98.99609375 263.4453125 C-100.62109375 262.1953125 -100.62109375 262.1953125 -101.62109375 259.1953125 C-102.30171875 258.8034375 -102.98234375 258.4115625 -103.68359375 258.0078125 C-107.89569747 255.40885489 -111.58638901 252.11859084 -114.62109375 248.1953125 C-114.62109375 246.8753125 -114.62109375 245.5553125 -114.62109375 244.1953125 C-115.28109375 244.1953125 -115.94109375 244.1953125 -116.62109375 244.1953125 C-118.30841652 242.21270824 -119.97475432 240.2120783 -121.62109375 238.1953125 C-122.28109375 237.8653125 -122.94109375 237.5353125 -123.62109375 237.1953125 C-124.63975604 235.53998627 -125.63920188 233.87271112 -126.62109375 232.1953125 C-127.28109375 231.5353125 -127.94109375 230.8753125 -128.62109375 230.1953125 C-129.43801327 228.17164521 -130.20140829 226.1261557 -130.93359375 224.0703125 C-132.41683824 220.05190828 -133.8478425 216.59222653 -136.37109375 213.1328125 C-139.67358563 208.31883531 -139.51706149 202.86979949 -139.62109375 197.1953125 C-140.28109375 197.1953125 -140.94109375 197.1953125 -141.62109375 197.1953125 C-141.62109375 196.5353125 -141.62109375 195.8753125 -141.62109375 195.1953125 C-142.28109375 195.1953125 -142.94109375 195.1953125 -143.62109375 195.1953125 C-145.73582136 190.11996623 -146.04454155 185.22690367 -146.375 179.8046875 C-146.46073187 177.2149897 -146.46073187 177.2149897 -147.62109375 175.1953125 C-147.71884456 173.22849241 -147.7518683 171.25830914 -147.75390625 169.2890625 C-147.75608154 168.07855225 -147.75825684 166.86804199 -147.76049805 165.62084961 C-147.75574463 164.32542236 -147.75099121 163.02999512 -147.74609375 161.6953125 C-147.74198486 160.37990479 -147.73787598 159.06449707 -147.73364258 157.70922852 C-147.57693468 130.24827636 -147.57693468 130.24827636 -144.51953125 119.5625 C-143.27496852 114.89809535 -142.36311811 110.18112524 -141.43359375 105.4453125 C-141.25465576 104.53797363 -141.07571777 103.63063477 -140.89135742 102.69580078 C-140.46551687 100.52943298 -140.04201833 98.36263997 -139.62109375 96.1953125 C-138.96109375 96.1953125 -138.30109375 96.1953125 -137.62109375 96.1953125 C-137.58371094 95.61523438 -137.54632813 95.03515625 -137.5078125 94.4375 C-137.07910236 89.34341485 -136.21750031 85.68909308 -133.62109375 81.1953125 C-131.42151309 77.13454821 -130.16857765 73.7941773 -129.62109375 69.1953125 C-128.30109375 69.1953125 -126.98109375 69.1953125 -125.62109375 69.1953125 C-125.39421875 68.1228125 -125.16734375 67.0503125 -124.93359375 65.9453125 C-123.44670307 61.69705342 -122.1965413 60.7492036 -118.62109375 58.1953125 C-117.26722439 56.54528422 -115.93431233 54.8778738 -114.62109375 53.1953125 C-111.16340082 49.44947849 -107.45914548 46.52252893 -103.29296875 43.625 C-101.33647454 42.2005988 -101.33647454 42.2005988 -100.62109375 39.1953125 C-99.16796875 37.66015625 -99.16796875 37.66015625 -97.37109375 36.1328125 C-96.7884375 35.62621094 -96.20578125 35.11960938 -95.60546875 34.59765625 C-93.36932443 33.01738891 -91.16952336 32.18355849 -88.62109375 31.1953125 C-87.02995117 30.30729348 -85.46594322 29.36882345 -83.93359375 28.3828125 C-83.16660156 27.90199219 -82.39960938 27.42117187 -81.609375 26.92578125 C-79.42642336 25.29737415 -79.42642336 25.29737415 -78.60546875 22.57421875 C-77.62109375 20.1953125 -77.62109375 20.1953125 -75.7109375 19.3046875 C-75.00066406 19.18609375 -74.29039062 19.0675 -73.55859375 18.9453125 C-70.81349311 18.61551148 -70.81349311 18.61551148 -68.62109375 17.1953125 C-66.9549226 17.15467418 -65.2872128 17.1525915 -63.62109375 17.1953125 C-63.62109375 16.2053125 -63.62109375 15.2153125 -63.62109375 14.1953125 C-62.945625 14.16953125 -62.27015625 14.14375 -61.57421875 14.1171875 C-55.96690763 13.76065327 -53.47906293 13.45238194 -49.62109375 9.1953125 C-47.3007757 8.78096999 -44.9647029 8.44641348 -42.62109375 8.1953125 C-41.27131526 7.56260383 -39.93756494 6.89468782 -38.62109375 6.1953125 C-33.1389046 4.32903534 -27.63358911 3.53681672 -21.90234375 2.7578125 C-18.6284927 2.28683406 -18.6284927 2.28683406 -15.64233398 1.17236328 C-10.50354431 -0.31455327 -5.30646268 -0.05179502 0 0 Z " fill="#D3D3D3" transform="translate(299.62109375,139.8046875)"/>
<path d="M0 0 C0 0.66 0 1.32 0 2 C0.72445312 2.13535156 1.44890625 2.27070313 2.1953125 2.41015625 C8.40252405 3.79229535 12.13043147 5.21542747 16.07421875 10.28125 C17 12 17 12 17 15 C18.98 15.495 18.98 15.495 21 16 C21.495 19.465 21.495 19.465 22 23 C22.66 23 23.32 23 24 23 C25.7697771 26.81206312 26.23827942 29.76775622 26.1953125 33.95703125 C26.18886719 35.06884766 26.18242188 36.18066406 26.17578125 37.32617188 C26.15064453 39.0519043 26.15064453 39.0519043 26.125 40.8125 C26.11597656 41.98232422 26.10695313 43.15214844 26.09765625 44.35742188 C26.07413732 47.23849053 26.04126852 50.11913989 26 53 C25.34 53 24.68 53 24 53 C24.103125 53.825 24.20625 54.65 24.3125 55.5 C23.72780416 62.04859345 19.60224481 66.56212108 15 71 C14.505 72.485 14.505 72.485 14 74 C11.875 75.4375 11.875 75.4375 9 77 C8.071875 77.70125 7.14375 78.4025 6.1875 79.125 C-3.36851404 84.58259226 -19.40055166 82.33861394 -29.625 80.0625 C-30.73875 79.711875 -31.8525 79.36125 -33 79 C-33.495 78.01 -33.495 78.01 -34 77 C-34.70125 76.5875 -35.4025 76.175 -36.125 75.75 C-41.98565425 72.18264524 -46.4660592 68.558435 -49 62 C-49 61.34 -49 60.68 -49 60 C-49.66 60 -50.32 60 -51 60 C-53.7464161 53.22969197 -54.49248254 47.21019038 -54.4375 39.9375 C-54.45748047 38.99583984 -54.47746094 38.05417969 -54.49804688 37.08398438 C-54.49307405 29.93803829 -53.16903774 24.16903774 -48 19 C-47.87625 18.360625 -47.7525 17.72125 -47.625 17.0625 C-46.79163355 14.31239071 -45.28758154 13.64419923 -43 12 C-42.67 11.01 -42.34 10.02 -42 9 C-41.34 9 -40.68 9 -40 9 C-39.67 8.01 -39.34 7.02 -39 6 C-28.04646192 -2.95956877 -13.12583536 -1.16324768 0 0 Z " fill="#E59F3A" transform="translate(532,256)"/>
<path d="M0 0 C1.875 1.5 1.875 1.5 2.875 4.5 C4.50564764 5.55771739 6.17780873 6.55273046 7.875 7.5 C11.27255718 9.69841935 13.09271404 11.84631378 14.875 15.5 C14.875 16.82 14.875 18.14 14.875 19.5 C15.535 19.5 16.195 19.5 16.875 19.5 C19.56736438 25.6026926 20.01356828 31.30939541 20 37.9375 C20.00386719 39.82275391 20.00386719 39.82275391 20.0078125 41.74609375 C19.87743134 45.43127902 19.46562733 48.86717317 18.875 52.5 C18.215 52.5 17.555 52.5 16.875 52.5 C16.730625 53.11875 16.58625 53.7375 16.4375 54.375 C15.875 56.5 15.875 56.5 14.875 58.5 C14.215 58.5 13.555 58.5 12.875 58.5 C12.81054688 59.23734375 12.74609375 59.9746875 12.6796875 60.734375 C11.62182885 64.37012222 9.98822067 65.48068459 7 67.75 C6.11570312 68.43578125 5.23140625 69.1215625 4.3203125 69.828125 C1.875 71.5 1.875 71.5 -1.125 72.5 C-1.785 73.49 -2.445 74.48 -3.125 75.5 C-4.115 75.5 -5.105 75.5 -6.125 75.5 C-6.125 76.16 -6.125 76.82 -6.125 77.5 C-10.24975481 77.61751438 -14.37407118 77.68768824 -18.5 77.75 C-19.65628906 77.78351563 -20.81257813 77.81703125 -22.00390625 77.8515625 C-29.580299 77.93717146 -35.3453913 76.93727517 -42.125 73.5 C-42.125 72.84 -42.125 72.18 -42.125 71.5 C-42.681875 71.4175 -43.23875 71.335 -43.8125 71.25 C-46.88688846 70.25290104 -48.78742952 68.70770546 -51.125 66.5 C-51.125 65.51 -51.125 64.52 -51.125 63.5 C-51.723125 63.273125 -52.32125 63.04625 -52.9375 62.8125 C-55.75740835 61.12055499 -56.72097086 59.44846119 -58.125 56.5 C-58.125 55.18 -58.125 53.86 -58.125 52.5 C-58.785 52.5 -59.445 52.5 -60.125 52.5 C-61.36297861 47.69546395 -61.27274283 42.98632326 -61.25 38.0625 C-61.25386719 37.22912109 -61.25773437 36.39574219 -61.26171875 35.53710938 C-61.25466873 31.07797413 -61.02416791 26.88879575 -60.125 22.5 C-59.465 22.5 -58.805 22.5 -58.125 22.5 C-57.795 19.86 -57.465 17.22 -57.125 14.5 C-56.465 14.5 -55.805 14.5 -55.125 14.5 C-55.125 13.84 -55.125 13.18 -55.125 12.5 C-54.465 12.5 -53.805 12.5 -53.125 12.5 C-53.063125 11.943125 -53.00125 11.38625 -52.9375 10.8125 C-51.76827572 7.48470782 -49.77177196 5.76866168 -47.125 3.5 C-46.135 3.5 -45.145 3.5 -44.125 3.5 C-44.125 2.84 -44.125 2.18 -44.125 1.5 C-42.42105107 0.67834491 -40.71160102 -0.13190645 -39 -0.9375 C-38.04867187 -1.38996094 -37.09734375 -1.84242188 -36.1171875 -2.30859375 C-24.63739792 -6.87952824 -10.9461456 -5.25414989 0 0 Z " fill="#51B0CD" transform="translate(97.125,259.5)"/>
<path d="M0 0 C1.64984642 0.00424484 1.64984642 0.00424484 3.33302307 0.00857544 C6.82759728 0.0197227 10.32191019 0.04481752 13.81640625 0.0703125 C16.19335566 0.08034934 18.57030911 0.08947396 20.94726562 0.09765625 C26.75790085 0.11964419 32.56838487 0.1530674 38.37890625 0.1953125 C38.37890625 0.8553125 38.37890625 1.5153125 38.37890625 2.1953125 C39.43078125 2.1540625 40.48265625 2.1128125 41.56640625 2.0703125 C47.5934005 2.0703125 53.45275636 3.1906502 59.37890625 4.1953125 C60.53519531 4.38609375 61.69148437 4.576875 62.8828125 4.7734375 C65.71584121 5.24170671 68.54776214 5.71580341 71.37890625 6.1953125 C71.37890625 6.5253125 71.37890625 6.8553125 71.37890625 7.1953125 C69.39981227 7.22217803 67.42061654 7.24164625 65.44140625 7.2578125 C64.33925781 7.26941406 63.23710937 7.28101563 62.1015625 7.29296875 C59.37890625 7.1953125 59.37890625 7.1953125 58.37890625 6.1953125 C56.62331967 6.04974832 54.86234517 5.96807688 53.1015625 5.9140625 C52.03099609 5.87667969 50.96042969 5.83929688 49.85742188 5.80078125 C48.73013672 5.76597656 47.60285156 5.73117188 46.44140625 5.6953125 C44.22382378 5.62660943 42.00636082 5.55389461 39.7890625 5.4765625 C38.80043213 5.44626953 37.81180176 5.41597656 36.79321289 5.38476562 C34.37890625 5.1953125 34.37890625 5.1953125 32.37890625 4.1953125 C32.37890625 3.5353125 32.37890625 2.8753125 32.37890625 2.1953125 C22.14890625 2.1953125 11.91890625 2.1953125 1.37890625 2.1953125 C1.04890625 3.1853125 0.71890625 4.1753125 0.37890625 5.1953125 C-7.87109375 5.1953125 -16.12109375 5.1953125 -24.62109375 5.1953125 C-24.62109375 5.8553125 -24.62109375 6.5153125 -24.62109375 7.1953125 C-25.36875 7.24429688 -26.11640625 7.29328125 -26.88671875 7.34375 C-27.8715625 7.41851562 -28.85640625 7.49328125 -29.87109375 7.5703125 C-30.845625 7.63992187 -31.82015625 7.70953125 -32.82421875 7.78125 C-35.55148386 8.18500712 -37.21922176 8.9183679 -39.62109375 10.1953125 C-41.29171875 10.3809375 -41.29171875 10.3809375 -42.99609375 10.5703125 C-46.69799606 10.95090969 -46.69799606 10.95090969 -49.55859375 13.1953125 C-52.50369288 15.11864255 -53.54803242 15.49698761 -56.87109375 15.8203125 C-60.64601283 15.79807305 -60.64601283 15.79807305 -62.62109375 18.1953125 C-64.62109375 18.86197917 -66.62109375 19.52864583 -68.62109375 20.1953125 C-71.3255732 21.45706778 -73.97393314 22.81807353 -76.62109375 24.1953125 C-77.28109375 24.5253125 -77.94109375 24.8553125 -78.62109375 25.1953125 C-78.29109375 23.5453125 -77.96109375 21.8953125 -77.62109375 20.1953125 C-76.77224609 19.99615234 -76.77224609 19.99615234 -75.90625 19.79296875 C-74.80603516 19.52806641 -74.80603516 19.52806641 -73.68359375 19.2578125 C-72.58724609 18.99677734 -72.58724609 18.99677734 -71.46875 18.73046875 C-69.62139477 18.35643681 -69.62139477 18.35643681 -68.62109375 17.1953125 C-66.9549226 17.15467418 -65.2872128 17.1525915 -63.62109375 17.1953125 C-63.62109375 16.2053125 -63.62109375 15.2153125 -63.62109375 14.1953125 C-62.945625 14.16953125 -62.27015625 14.14375 -61.57421875 14.1171875 C-55.96690763 13.76065327 -53.47906293 13.45238194 -49.62109375 9.1953125 C-47.3007757 8.78096999 -44.9647029 8.44641348 -42.62109375 8.1953125 C-41.27131526 7.56260383 -39.93756494 6.89468782 -38.62109375 6.1953125 C-33.1389046 4.32903534 -27.63358911 3.53681672 -21.90234375 2.7578125 C-18.6284927 2.28683406 -18.6284927 2.28683406 -15.64233398 1.17236328 C-10.50354431 -0.31455327 -5.30646268 -0.05179502 0 0 Z " fill="#999999" transform="translate(299.62109375,139.8046875)"/>
<path d="M0 0 C0 3.96115513 -1.43725543 5.11212473 -3.875 8.1875 C-7.37528324 12.838053 -9.13570699 16.27405882 -10 22 C-10.99 22 -11.98 22 -13 22 C-13 24.31 -13 26.62 -13 29 C-13.66 29 -14.32 29 -15 29 C-15.33 31.64 -15.66 34.28 -16 37 C-16.99 37 -17.98 37 -19 37 C-19.33 41.62 -19.66 46.24 -20 51 C-20.66 51 -21.32 51 -22 51 C-21.90602635 56.97764122 -21.79983663 62.95489825 -21.68261719 68.93212891 C-21.64447584 70.96299391 -21.6095978 72.99392305 -21.578125 75.02490234 C-21.5321506 77.95433381 -21.47421109 80.88332933 -21.4140625 83.8125 C-21.39673569 85.16142334 -21.39673569 85.16142334 -21.37905884 86.53759766 C-21.25272401 92.00745401 -20.47396661 96.73184002 -19 102 C-18.82775034 103.80862138 -18.69684169 105.62211574 -18.625 107.4375 C-18.22533197 112.74420322 -16.92662433 119.07337567 -13 123 C-12.87625 124.258125 -12.7525 125.51625 -12.625 126.8125 C-12.23536127 130.38312381 -11.41652165 132.26827987 -9 135 C-9 135.66 -9 136.32 -9 137 C-9.66 137 -10.32 137 -11 137 C-11.33 136.01 -11.66 135.02 -12 134 C-12.66 133.67 -13.32 133.34 -14 133 C-14.4140625 130.71484375 -14.4140625 130.71484375 -14.625 127.9375 C-14.69976562 127.01839844 -14.77453125 126.09929687 -14.8515625 125.15234375 C-14.90054688 124.44207031 -14.94953125 123.73179687 -15 123 C-15.66 123 -16.32 123 -17 123 C-17 122.01 -17 121.02 -17 120 C-17.99 119.67 -18.98 119.34 -20 119 C-20 115.7 -20 112.4 -20 109 C-20.66 109 -21.32 109 -22 109 C-22.05534912 108.42967041 -22.11069824 107.85934082 -22.16772461 107.27172852 C-22.41973743 104.70151247 -22.67852728 102.13202369 -22.9375 99.5625 C-23.02451172 98.66466797 -23.11152344 97.76683594 -23.20117188 96.84179688 C-23.28818359 95.98779297 -23.37519531 95.13378906 -23.46484375 94.25390625 C-23.543396 93.46314697 -23.62194824 92.6723877 -23.70288086 91.85766602 C-23.81551499 89.98896652 -23.81551499 89.98896652 -25 89 C-25.08790975 86.70848583 -25.10694038 84.41427476 -25.09765625 82.12109375 C-25.0962413 81.4344313 -25.09482635 80.74776886 -25.09336853 80.04029846 C-25.08775479 77.83932199 -25.07520007 75.63844591 -25.0625 73.4375 C-25.05748676 71.94856917 -25.05292355 70.45963676 -25.04882812 68.97070312 C-25.03778093 65.31376925 -25.02050713 61.65689442 -25 58 C-24.34 58 -23.68 58 -23 58 C-23 52.39 -23 46.78 -23 41 C-22.01 40.505 -22.01 40.505 -21 40 C-20.53476937 38.10466658 -20.53476937 38.10466658 -20.375 35.9375 C-20.25125 34.638125 -20.1275 33.33875 -20 32 C-18.68 31.67 -17.36 31.34 -16 31 C-16.061875 29.96875 -16.12375 28.9375 -16.1875 27.875 C-15.98864405 23.76531027 -15.05532197 21.51117504 -13 18 C-12.34 18 -11.68 18 -11 18 C-11 16.35 -11 14.7 -11 13 C-10.34 12.67 -9.68 12.34 -9 12 C-8.67 11.01 -8.34 10.02 -8 9 C-7.34 9 -6.68 9 -6 9 C-6 7.35 -6 5.7 -6 4 C-4.68 4 -3.36 4 -2 4 C-1.34 2.68 -0.68 1.36 0 0 Z " fill="#AFAFAF" transform="translate(231,208)"/>
<path d="M0 0 C0.77664001 -0.00563965 1.55328003 -0.0112793 2.35345459 -0.01708984 C3.19103302 -0.01304138 4.02861145 -0.00899292 4.89157104 -0.00482178 C5.78481079 -0.00832642 6.67805054 -0.01183105 7.59835815 -0.01544189 C10.54366888 -0.02422717 13.48873845 -0.01842234 16.43405151 -0.01165771 C18.48238165 -0.01300505 20.53071148 -0.01494615 22.57904053 -0.01745605 C26.86781871 -0.02040277 31.1565135 -0.01612327 35.44528198 -0.0067749 C40.9479134 0.00463374 46.45035001 -0.00195167 51.95297432 -0.01391983 C56.1805163 -0.02113832 60.4080119 -0.01885079 64.63555527 -0.01366425 C66.66498716 -0.01232847 68.69442324 -0.01397296 70.72385025 -0.01862335 C73.55591283 -0.02368993 76.38765723 -0.01597709 79.21969604 -0.00482178 C80.06132294 -0.00887024 80.90294983 -0.0129187 81.77008057 -0.01708984 C85.67212915 0.01145253 87.60499089 0.03980187 90.92623901 2.25396729 C91.35983276 5.15240479 91.35983276 5.15240479 91.36373901 8.62896729 C91.38307495 9.77107666 91.40241089 10.91318604 91.42233276 12.08990479 C90.84089941 15.79825924 89.80216037 16.94184041 86.92623901 19.25396729 C86.26623901 18.92396729 85.60623901 18.59396729 84.92623901 18.25396729 C85.88530151 17.60427979 85.88530151 17.60427979 86.86373901 16.94146729 C89.99589145 13.35586846 89.99589145 13.35586846 89.92623901 3.25396729 C58.57623901 3.25396729 27.22623901 3.25396729 -5.07376099 3.25396729 C-5.07376099 3.91396729 -5.07376099 4.57396729 -5.07376099 5.25396729 C-5.73376099 5.25396729 -6.39376099 5.25396729 -7.07376099 5.25396729 C-6.61611392 9.92196736 -6.24105817 13.66436381 -3.07376099 17.25396729 C0.52543324 18.14988811 0.52543324 18.14988811 3.92623901 18.25396729 C3.92623901 19.24396729 3.92623901 20.23396729 3.92623901 21.25396729 C5.01936401 21.15084229 6.11248901 21.04771729 7.23873901 20.94146729 C8.45561401 21.04459229 9.67248901 21.14771729 10.92623901 21.25396729 C12.73873901 23.62896729 12.73873901 23.62896729 13.92623901 26.25396729 C14.58623901 26.91396729 15.24623901 27.57396729 15.92623901 28.25396729 C13.31979987 27.75272899 11.43114384 26.99565676 9.05123901 25.75396729 C5.93076119 24.25613793 3.34347438 23.66078102 -0.07376099 23.25396729 C-0.40376099 22.26396729 -0.73376099 21.27396729 -1.07376099 20.25396729 C-2.93398171 19.02119602 -2.93398171 19.02119602 -5.13626099 18.06646729 C-6.43563599 17.46834229 -7.73501099 16.87021729 -9.07376099 16.25396729 C-9.07376099 11.63396729 -9.07376099 7.01396729 -9.07376099 2.25396729 C-3.44854664 0.00388155 -3.44854664 0.00388155 0 0 Z " fill="#8F8F8F" transform="translate(357.0737609863281,310.74603271484375)"/>
<path d="M0 0 C0.66 0.33 1.32 0.66 2 1 C1.67 1.99 1.34 2.98 1 4 C0.01 4 -0.98 4 -2 4 C-2 4.66 -2 5.32 -2 6 C-2.99 6.33 -3.98 6.66 -5 7 C-6.78496029 9.75010506 -7.25878158 11.97420539 -7.31884766 15.21777344 C-7.33871735 16.03832214 -7.35858704 16.85887085 -7.37905884 17.70428467 C-7.39638565 19.01855438 -7.39638565 19.01855438 -7.4140625 20.359375 C-7.43342865 21.26375305 -7.4527948 22.1681311 -7.4727478 23.09991455 C-7.53243831 25.98318099 -7.57888686 28.86648758 -7.625 31.75 C-7.66318947 33.70704848 -7.70224177 35.66408033 -7.7421875 37.62109375 C-7.83813125 42.41392711 -7.92220127 47.20683915 -8 52 C-8.66 52 -9.32 52 -10 52 C-10 66.85 -10 81.7 -10 97 C-16.46149886 98.43588864 -20.73295329 99.23904589 -27.0625 99.125 C-28.37347656 99.10695313 -29.68445313 99.08890625 -31.03515625 99.0703125 C-32.01355469 99.04710937 -32.99195313 99.02390625 -34 99 C-34 99.66 -34 100.32 -34 101 C-40.34241995 102.15316726 -46.56688704 102.09507063 -53 102 C-46.26306092 97.50870728 -39.9600274 97.74956237 -32.125 97.875 C-31.05507813 97.88402344 -29.98515625 97.89304687 -28.8828125 97.90234375 C-26.25497561 97.92580658 -23.62760594 97.95863541 -21 98 C-21 97.34 -21 96.68 -21 96 C-16.545 95.505 -16.545 95.505 -12 95 C-12.01571045 93.32103638 -12.01571045 93.32103638 -12.03173828 91.6081543 C-12.19946451 71.86582149 -12.26216364 52.15401415 -11.125 32.4375 C-11.08570374 31.7192807 -11.04640747 31.0010614 -11.00592041 30.26107788 C-9.95701544 11.56657132 -9.95701544 11.56657132 -8 7 C-5.92626953 5.73999023 -5.92626953 5.73999023 -4 5 C-4 4.01 -4 3.02 -4 2 C-2.68 2 -1.36 2 0 2 C0 1.34 0 0.68 0 0 Z " fill="#404040" transform="translate(440,330)"/>
<path d="M0 0 C1.55289777 3.10579554 0.44920823 5.52291349 -0.25 8.875 C-0.38841309 9.55264404 -0.52682617 10.23028809 -0.66943359 10.9284668 C-1.50498725 14.94148468 -2.50733706 18.86748181 -3.625 22.8125 C-6.85530318 35.63223723 -6.08402618 49.38275248 -6.125 62.5 C-6.12975342 63.79542725 -6.13450684 65.09085449 -6.1394043 66.42553711 C-6.137229 67.63604736 -6.13505371 68.84655762 -6.1328125 70.09375 C-6.13168457 71.18365234 -6.13055664 72.27355469 -6.12939453 73.39648438 C-6.17579488 75.98363034 -6.17579488 75.98363034 -5 78 C-4.79382774 79.9128204 -4.63367907 81.83075046 -4.5 83.75 C-4.1869258 87.88456723 -3.79253284 91.92411682 -3 96 C-2.34 96 -1.68 96 -1 96 C-1 96.66 -1 97.32 -1 98 C-0.34 98 0.32 98 1 98 C1.08636719 98.7734375 1.17273438 99.546875 1.26171875 100.34375 C2.08913112 106.47722886 3.12904095 110.98567148 6.6875 116.05859375 C8.14494009 118.21439055 9.27170149 120.39399797 10.375 122.75 C10.71273437 123.46671875 11.05046875 124.1834375 11.3984375 124.921875 C12.09907921 127.34227362 11.81549949 128.64881964 11 131 C9.5 129.75 9.5 129.75 8 128 C8 126.68 8 125.36 8 124 C7.34 124 6.68 124 6 124 C3.96564469 120.27034861 3 118.33094958 3 114 C2.34 114 1.68 114 1 114 C-0.4783226 111.04335481 -0.06032783 108.25770263 0 105 C-0.66 105 -1.32 105 -2 105 C-3.35439668 102.29120665 -3.06501451 99.99066732 -3 97 C-3.66 97 -4.32 97 -5 97 C-5.13277344 96.21753906 -5.26554688 95.43507813 -5.40234375 94.62890625 C-5.57894531 93.61699219 -5.75554687 92.60507812 -5.9375 91.5625 C-6.11152344 90.55316406 -6.28554687 89.54382813 -6.46484375 88.50390625 C-6.74751097 86.0712562 -6.74751097 86.0712562 -8 85 C-8.10422936 83.2003634 -8.13854102 81.396634 -8.14526367 79.59399414 C-8.15164352 78.43932144 -8.15802338 77.28464874 -8.16459656 76.09498596 C-8.16570938 74.83774216 -8.1668222 73.58049835 -8.16796875 72.28515625 C-8.17129715 71.00394394 -8.17462555 69.72273163 -8.17805481 68.4026947 C-8.18405192 65.6865047 -8.18589413 62.97034655 -8.18530273 60.25415039 C-8.1852011 56.76909408 -8.19885216 53.28424145 -8.21607494 49.79923344 C-8.22985066 46.48203767 -8.22928324 43.1648803 -8.23046875 39.84765625 C-8.23765427 38.59243668 -8.24483978 37.3372171 -8.25224304 36.04396057 C-8.24916641 34.88613571 -8.24608978 33.72831085 -8.24291992 32.53540039 C-8.24434494 31.51249405 -8.24576996 30.48958771 -8.24723816 29.4356842 C-8 27 -8 27 -6 25 C-5.56758381 22.82661404 -5.22452617 20.63481797 -4.9375 18.4375 C-4.09722222 12.09722222 -4.09722222 12.09722222 -3 11 C-2.63128912 9.34080104 -2.30404678 7.67225729 -2 6 C-1.11111111 1.11111111 -1.11111111 1.11111111 0 0 Z " fill="#545454" transform="translate(159,239)"/>
<path d="M0 0 C4.38889325 0.66498383 7.9811485 2.18757677 12 4 C12 4.66 12 5.32 12 6 C12.515625 6.103125 13.03125 6.20625 13.5625 6.3125 C20.18443343 8.18022481 27.28344569 10.90976851 31 17 C31.97281876 22.27750766 31.45902714 27.68931104 31 33 C30.34 33 29.68 33 29 33 C29.00785522 33.89307861 29.00785522 33.89307861 29.01586914 34.80419922 C29.03661999 37.49445547 29.04965407 40.18469489 29.0625 42.875 C29.07087891 43.81214844 29.07925781 44.74929687 29.08789062 45.71484375 C29.09272461 47.05869141 29.09272461 47.05869141 29.09765625 48.4296875 C29.10551147 49.67081299 29.10551147 49.67081299 29.11352539 50.93701172 C29 53 29 53 28 55 C27.61369961 57.03583123 27.26403216 59.0787318 26.9375 61.125 C26.76089844 62.22070312 26.58429688 63.31640625 26.40234375 64.4453125 C26.26957031 65.28835937 26.13679688 66.13140625 26 67 C25.01 67 24.02 67 23 67 C22.67 67.99 22.34 68.98 22 70 C19.87527424 70.05386629 17.75016348 70.09273071 15.625 70.125 C14.44164062 70.14820313 13.25828125 70.17140625 12.0390625 70.1953125 C9 70 9 70 7 68 C11.95 68 16.9 68 22 68 C22 66.35 22 64.7 22 63 C22.33 62.67 22.66 62.34 23 62 C23.23701239 59.14122091 23.42219182 56.30116703 23.5625 53.4375 C23.60568359 52.63119141 23.64886719 51.82488281 23.69335938 50.99414062 C23.79975262 48.99631195 23.90040888 46.9981793 24 45 C24.66 45 25.32 45 26 45 C26.66 36.09 27.32 27.18 28 18 C26.68 17.67 25.36 17.34 24 17 C23.34 16.67 22.68 16.34 22 16 C22 14.68 22 13.36 22 12 C21.34 12 20.68 12 20 12 C20 11.34 20 10.68 20 10 C19.278125 9.896875 18.55625 9.79375 17.8125 9.6875 C14.72206579 8.93206053 12.58256159 7.84468685 10 6 C10 5.34 10 4.68 10 4 C8.9171875 4.12375 8.9171875 4.12375 7.8125 4.25 C4.16451206 3.92573441 2.65431702 2.42680413 0 0 Z " fill="#595959" transform="translate(384,151)"/>
<path d="M0 0 C2.31 0 4.62 0 7 0 C7 0.66 7 1.32 7 2 C8.32 2 9.64 2 11 2 C11.33 2.66 11.66 3.32 12 4 C13.89533342 4.46523063 13.89533342 4.46523063 16.0625 4.625 C17.361875 4.74875 18.66125 4.8725 20 5 C20 5.99 20 6.98 20 8 C22.97 8 25.94 8 29 8 C29.33 8.66 29.66 9.32 30 10 C32.35599235 10.46751788 32.35599235 10.46751788 35.0625 10.625 C36.44115234 10.73714844 36.44115234 10.73714844 37.84765625 10.8515625 C38.55792969 10.90054687 39.26820313 10.94953125 40 11 C40 11.66 40 12.32 40 13 C45.28 13 50.56 13 56 13 C56.495 13.99 56.495 13.99 57 15 C72.84 15.33 88.68 15.66 105 16 C105 16.33 105 16.66 105 17 C102.43852756 17.34357475 99.87632819 17.67485298 97.3125 18 C96.61060547 18.09539062 95.90871094 18.19078125 95.18554688 18.2890625 C80.9569687 20.05973001 66.8714196 18.3944109 52.6875 17 C50.67518412 16.80672947 48.66281459 16.6140168 46.65039062 16.421875 C41.76628496 15.95434265 36.88296644 15.47927831 32 15 C31.67 14.01 31.34 13.02 31 12 C29.865625 11.855625 28.73125 11.71125 27.5625 11.5625 C24 11 24 11 23 10 C21.948125 9.896875 20.89625 9.79375 19.8125 9.6875 C16 9 16 9 13.125 7.0625 C9.62862661 4.75489356 6.93448397 4.19793815 2.85546875 3.58984375 C2.24316406 3.39519531 1.63085938 3.20054687 1 3 C0.67 2.01 0.34 1.02 0 0 Z " fill="#8E8E8E" transform="translate(233,423)"/>
<path d="M0 0 C-3.85905949 1.92952974 -6.26132535 3.12483821 -10.625 3.0625 C-11.85089844 3.04896484 -11.85089844 3.04896484 -13.1015625 3.03515625 C-13.72804688 3.02355469 -14.35453125 3.01195312 -15 3 C-15.33 3.99 -15.66 4.98 -16 6 C-21.28 6 -26.56 6 -32 6 C-32.33 6.99 -32.66 7.98 -33 9 C-39.93 9 -46.86 9 -54 9 C-54.33 9.99 -54.66 10.98 -55 12 C-66.22 12 -77.44 12 -89 12 C-89.33 11.01 -89.66 10.02 -90 9 C-89.36199463 9.01047363 -88.72398926 9.02094727 -88.06665039 9.03173828 C-76.13291905 9.20104146 -64.47949697 9.16773126 -52.65625 7.4375 C-48.70747514 6.96499703 -44.97227536 6.92969424 -41 7 C-41 6.34 -41 5.68 -41 5 C-39.21142578 4.80083984 -39.21142578 4.80083984 -37.38671875 4.59765625 C-35.82029322 4.41944017 -34.25388802 4.24104544 -32.6875 4.0625 C-31.90181641 3.97548828 -31.11613281 3.88847656 -30.30664062 3.79882812 C-29.1706543 3.66831055 -29.1706543 3.66831055 -28.01171875 3.53515625 C-27.31522217 3.456604 -26.61872559 3.37805176 -25.90112305 3.29711914 C-23.78351766 3.02003217 -23.78351766 3.02003217 -21 2 C-17.64720828 1.6924828 -14.29380703 1.4910292 -10.93359375 1.28125 C-7.0419733 0.9081519 -4.06516173 -0.08837308 0 0 Z " fill="#333333" transform="translate(387,432)"/>
<path d="M0 0 C1.64984642 0.00424484 1.64984642 0.00424484 3.33302307 0.00857544 C6.82759728 0.0197227 10.32191019 0.04481752 13.81640625 0.0703125 C16.19335566 0.08034934 18.57030911 0.08947396 20.94726562 0.09765625 C26.75790085 0.11964419 32.56838487 0.1530674 38.37890625 0.1953125 C38.37890625 0.5253125 38.37890625 0.8553125 38.37890625 1.1953125 C37.25508545 1.22036865 36.13126465 1.2454248 34.97338867 1.27124023 C30.75568577 1.36627269 26.53811139 1.46624886 22.32055664 1.56762695 C20.50418123 1.61061713 18.68777466 1.65231288 16.87133789 1.69262695 C1.18974706 0.98820395 1.18974706 0.98820395 -13.62109375 4.1953125 C-16.50019963 4.42805459 -19.3625587 4.61504007 -22.24609375 4.7578125 C-23.04789062 4.80099609 -23.8496875 4.84417969 -24.67578125 4.88867188 C-26.65734485 4.99482707 -28.63919646 5.09558105 -30.62109375 5.1953125 C-30.62109375 5.8553125 -30.62109375 6.5153125 -30.62109375 7.1953125 C-34.86130092 8.72409468 -38.81396103 10.09955099 -43.30859375 10.6328125 C-46.7421362 10.97931447 -46.7421362 10.97931447 -49.55859375 13.1953125 C-52.50369288 15.11864255 -53.54803242 15.49698761 -56.87109375 15.8203125 C-60.64601283 15.79807305 -60.64601283 15.79807305 -62.62109375 18.1953125 C-64.62109375 18.86197917 -66.62109375 19.52864583 -68.62109375 20.1953125 C-71.3255732 21.45706778 -73.97393314 22.81807353 -76.62109375 24.1953125 C-77.28109375 24.5253125 -77.94109375 24.8553125 -78.62109375 25.1953125 C-78.29109375 23.5453125 -77.96109375 21.8953125 -77.62109375 20.1953125 C-76.77224609 19.99615234 -76.77224609 19.99615234 -75.90625 19.79296875 C-74.80603516 19.52806641 -74.80603516 19.52806641 -73.68359375 19.2578125 C-72.58724609 18.99677734 -72.58724609 18.99677734 -71.46875 18.73046875 C-69.62139477 18.35643681 -69.62139477 18.35643681 -68.62109375 17.1953125 C-66.9549226 17.15467418 -65.2872128 17.1525915 -63.62109375 17.1953125 C-63.62109375 16.2053125 -63.62109375 15.2153125 -63.62109375 14.1953125 C-62.945625 14.16953125 -62.27015625 14.14375 -61.57421875 14.1171875 C-55.96690763 13.76065327 -53.47906293 13.45238194 -49.62109375 9.1953125 C-47.3007757 8.78096999 -44.9647029 8.44641348 -42.62109375 8.1953125 C-41.27131526 7.56260383 -39.93756494 6.89468782 -38.62109375 6.1953125 C-33.1389046 4.32903534 -27.63358911 3.53681672 -21.90234375 2.7578125 C-18.6284927 2.28683406 -18.6284927 2.28683406 -15.64233398 1.17236328 C-10.50354431 -0.31455327 -5.30646268 -0.05179502 0 0 Z " fill="#585858" transform="translate(299.62109375,139.8046875)"/>
<path d="M0 0 C-0.99 0.66 -1.98 1.32 -3 2 C-5.95959482 9.8571561 -5.62834007 19.12752053 -6.0625 27.4375 C-6.10324646 28.17191315 -6.14399292 28.90632629 -6.18597412 29.66299438 C-7.29507263 49.75754994 -7.64375052 69.88059338 -8 90 C-8.66 90 -9.32 90 -10 90 C-9.89260393 79.73415275 -9.77999214 69.46837738 -9.66066074 59.20266151 C-9.60541979 54.43623826 -9.55199791 49.66980888 -9.50268555 44.90332031 C-9.45505929 40.3062024 -9.40271711 35.70916047 -9.34705925 31.11213303 C-9.32662781 29.35542052 -9.30791605 27.59868718 -9.29092598 25.84193802 C-9.26689942 23.38754975 -9.23684255 20.93330574 -9.20532227 18.47900391 C-9.1995668 17.74748611 -9.19381134 17.01596832 -9.18788147 16.26228333 C-9.11405216 11.22810432 -9.11405216 11.22810432 -8 9 C-7.34 9 -6.68 9 -6 9 C-6 6.03 -6 3.06 -6 0 C-3 -1 -3 -1 0 0 Z " fill="#BCBCBC" transform="translate(436,335)"/>
<path d="M0 0 C0.68073578 -0.00508575 1.36147156 -0.01017151 2.06283569 -0.01541138 C4.01841771 -0.02715458 5.97407972 -0.02171879 7.9296875 -0.015625 C9.07421387 -0.01336914 10.21874023 -0.01111328 11.39794922 -0.00878906 C14.125 0.25 14.125 0.25 16.125 2.25 C2.265 2.58 -11.595 2.91 -25.875 3.25 C-25.875 3.91 -25.875 4.57 -25.875 5.25 C-26.57625 5.35957031 -27.2775 5.46914062 -28 5.58203125 C-34.78251472 6.71552216 -40.69238209 8.49253302 -47.00390625 11.14453125 C-50.76938382 12.66320452 -52.99493572 13.52046352 -56.875 12.25 C-55.740625 11.79625 -54.60625 11.3425 -53.4375 10.875 C-49.82778308 9.67904194 -49.82778308 9.67904194 -48.875 7.25 C-46.80859375 6.8359375 -46.80859375 6.8359375 -44.3125 6.625 C-43.48621094 6.55023438 -42.65992188 6.47546875 -41.80859375 6.3984375 C-40.85146484 6.32496094 -40.85146484 6.32496094 -39.875 6.25 C-39.875 5.59 -39.875 4.93 -39.875 4.25 C-38.740625 4.105625 -37.60625 3.96125 -36.4375 3.8125 C-33.06722799 3.63828522 -33.06722799 3.63828522 -31.875 2.25 C-21.37925099 0.04121718 -10.67614991 0.0330531 0 0 Z " fill="#616161" transform="translate(317.875,171.75)"/>
<path d="M0 0 C0.66 0 1.32 0 2 0 C2 0.99 2 1.98 2 3 C1.21753906 3.26554687 0.43507813 3.53109375 -0.37109375 3.8046875 C-1.38300781 4.15789062 -2.39492188 4.51109375 -3.4375 4.875 C-4.95150391 5.39707031 -4.95150391 5.39707031 -6.49609375 5.9296875 C-9.13971751 6.74055093 -9.13971751 6.74055093 -10 9 C-11.99609375 9.34375 -11.99609375 9.34375 -14.4375 9.5 C-18.16559619 9.65121611 -18.16559619 9.65121611 -21 12 C-23.68839385 12.26991906 -26.29141936 12.08737357 -29 12 C-29 12.66 -29 13.32 -29 14 C-34.39346988 14.02464849 -39.78690725 14.04283531 -45.18041992 14.05493164 C-47.01668875 14.05997231 -48.85295354 14.06680477 -50.68920898 14.07543945 C-53.32276401 14.08751672 -55.95626616 14.09323081 -58.58984375 14.09765625 C-59.82890724 14.10539818 -59.82890724 14.10539818 -61.09300232 14.11329651 C-63.06236368 14.11349205 -65.03161614 14.06204152 -67 14 C-67.33 13.67 -67.66 13.34 -68 13 C-69.51469448 12.76807135 -71.03754562 12.58784762 -72.5625 12.4375 C-73.38878906 12.35371094 -74.21507812 12.26992188 -75.06640625 12.18359375 C-75.70449219 12.12300781 -76.34257812 12.06242187 -77 12 C-76.67 11.01 -76.34 10.02 -76 9 C-75.16299561 9.19698486 -75.16299561 9.19698486 -74.30908203 9.39794922 C-66.86579036 11.02921197 -59.46828527 11.6290788 -51.875 12.125 C-50.63234375 12.21136719 -49.3896875 12.29773438 -48.109375 12.38671875 C-45.07326211 12.59691118 -42.03687689 12.80120633 -39 13 C-39 12.34 -39 11.68 -39 11 C-37.94039063 10.95101563 -36.88078125 10.90203125 -35.7890625 10.8515625 C-34.40101503 10.77653291 -33.01299549 10.70098515 -31.625 10.625 C-30.57699219 10.57859375 -30.57699219 10.57859375 -29.5078125 10.53125 C-25.29814173 10.40500502 -25.29814173 10.40500502 -22 8 C-19.6171875 7.5859375 -19.6171875 7.5859375 -16.875 7.375 C-15.96492188 7.30023438 -15.05484375 7.22546875 -14.1171875 7.1484375 C-13.06917969 7.07496094 -13.06917969 7.07496094 -12 7 C-12 6.34 -12 5.68 -12 5 C-11.21753906 4.72285156 -10.43507813 4.44570313 -9.62890625 4.16015625 C-8.61699219 3.79792969 -7.60507812 3.43570312 -6.5625 3.0625 C-5.55316406 2.70285156 -4.54382813 2.34320313 -3.50390625 1.97265625 C-1.09686255 1.23122361 -1.09686255 1.23122361 0 0 Z " fill="#838383" transform="translate(366,396)"/>
<path d="M0 0 C0.33 0 0.66 0 1 0 C1.10371911 9.72654773 1.04518445 19.31337984 0 29 C-0.66 29 -1.32 29 -2 29 C-1.88990537 33.22969262 -1.75932463 37.45851298 -1.625 41.6875 C-1.5940625 42.88568359 -1.563125 44.08386719 -1.53125 45.31835938 C-1.49257812 46.47529297 -1.45390625 47.63222656 -1.4140625 48.82421875 C-1.3826416 49.88729248 -1.3512207 50.95036621 -1.31884766 52.0456543 C-0.99510092 55.04539336 -0.1961548 57.25002826 1 60 C1.1953125 62.45703125 1.1953125 62.45703125 1.125 64.8125 C1.10695312 65.60269531 1.08890625 66.39289063 1.0703125 67.20703125 C1.04710937 67.79871094 1.02390625 68.39039063 1 69 C1.66 69 2.32 69 3 69 C3 71.64 3 74.28 3 77 C2.34 77 1.68 77 1 77 C-1.11472761 71.92465373 -1.4234478 67.03159117 -1.75390625 61.609375 C-1.83963812 59.0196772 -1.83963812 59.0196772 -3 57 C-3.09775081 55.03317991 -3.13077455 53.06299664 -3.1328125 51.09375 C-3.13490723 49.88307861 -3.13700195 48.67240723 -3.13916016 47.42504883 C-3.1344873 46.12978271 -3.12981445 44.8345166 -3.125 43.5 C-3.12161621 42.18604248 -3.11823242 40.87208496 -3.11474609 39.51831055 C-2.97088287 12.27964919 -2.97088287 12.27964919 0 0 Z " fill="#AAAAAA" transform="translate(155,258)"/>
<path d="M0 0 C0.33 0 0.66 0 1 0 C1.02684679 2.64590014 1.04676357 5.29153096 1.0625 7.9375 C1.07087891 8.69224609 1.07925781 9.44699219 1.08789062 10.22460938 C1.09652441 12.14994313 1.05224333 14.07535581 1 16 C0.67 16.33 0.34 16.66 0 17 C-0.09311889 18.50418739 -0.11746028 20.01271356 -0.11352539 21.51977539 C-0.11344986 22.48069595 -0.11337433 23.44161652 -0.11329651 24.43165588 C-0.10813522 25.476436 -0.10297394 26.52121613 -0.09765625 27.59765625 C-0.0962413 28.66165146 -0.09482635 29.72564667 -0.09336853 30.82188416 C-0.08775064 34.23545083 -0.07519511 37.648953 -0.0625 41.0625 C-0.05748731 43.37044176 -0.052924 45.67838455 -0.04882812 47.98632812 C-0.0377754 53.65757426 -0.02101987 59.32878253 0 65 C-3.46035507 61.53964493 -3.05204432 57.04872329 -3.11352539 52.37158203 C-3.11336844 50.58365104 -3.10780118 48.79571472 -3.09765625 47.0078125 C-3.0962413 46.06187225 -3.09482635 45.11593201 -3.09336853 44.1413269 C-3.08779484 41.13585171 -3.0752472 38.13045247 -3.0625 35.125 C-3.0574816 33.08073025 -3.05291929 31.03645932 -3.04882812 28.9921875 C-3.03783403 23.99476264 -3.02058757 18.99739417 -3 14 C-2.34 14 -1.68 14 -1 14 C-1.0309375 12.205625 -1.0309375 12.205625 -1.0625 10.375 C-1.06882571 6.81995131 -0.69888875 3.49444376 0 0 Z " fill="#494949" transform="translate(212,245)"/>
<path d="M0 0 C0.33 0 0.66 0 1 0 C1 14.52 1 29.04 1 44 C-5.67137728 46.50176648 -8.36431762 47.36524149 -15 47.1875 C-15.67933594 47.17396484 -16.35867188 47.16042969 -17.05859375 47.14648438 C-18.70608512 47.11167822 -20.35315841 47.05789677 -22 47 C-22 47.66 -22 48.32 -22 49 C-28.34241995 50.15316726 -34.56688704 50.09507063 -41 50 C-34.26306092 45.50870728 -27.9600274 45.74956237 -20.125 45.875 C-19.05507813 45.88402344 -17.98515625 45.89304687 -16.8828125 45.90234375 C-14.25497561 45.92580658 -11.62760594 45.95863541 -9 46 C-9 45.34 -9 44.68 -9 44 C-4.545 43.505 -4.545 43.505 0 43 C0 28.81 0 14.62 0 0 Z " fill="#727272" transform="translate(428,382)"/>
<path d="M0 0 C1.55289777 3.10579554 0.44920823 5.52291349 -0.25 8.875 C-0.62898437 10.72738281 -0.62898437 10.72738281 -1.015625 12.6171875 C-1.49589418 14.90262456 -2.03294797 17.10417708 -2.73754883 19.33203125 C-6.04002018 30.34633423 -5.81478145 41.8466888 -6.1875 53.25 C-6.26902181 55.45967854 -6.35169421 57.66931494 -6.43554688 59.87890625 C-6.63697683 65.25218991 -6.82415647 70.62582133 -7 76 C-7.33 76 -7.66 76 -8 76 C-8.05058729 69.05829978 -8.08568579 62.11664685 -8.10986328 55.17480469 C-8.11993924 52.81183089 -8.13360029 50.44886961 -8.15087891 48.0859375 C-8.17505724 44.69528112 -8.18646699 41.30478916 -8.1953125 37.9140625 C-8.20563507 36.85256989 -8.21595764 35.79107727 -8.22659302 34.69741821 C-8.22674408 33.71655243 -8.22689514 32.73568665 -8.22705078 31.72509766 C-8.23371262 30.42603989 -8.23371262 30.42603989 -8.24050903 29.10073853 C-8 27 -8 27 -6 25 C-5.56758381 22.82661404 -5.22452617 20.63481797 -4.9375 18.4375 C-4.09722222 12.09722222 -4.09722222 12.09722222 -3 11 C-2.63128912 9.34080104 -2.30404678 7.67225729 -2 6 C-1.11111111 1.11111111 -1.11111111 1.11111111 0 0 Z " fill="#5F5F5F" transform="translate(159,239)"/>
<path d="M0 0 C2.31 0 4.62 0 7 0 C7 0.66 7 1.32 7 2 C8.32 2 9.64 2 11 2 C11.33 2.66 11.66 3.32 12 4 C13.89533342 4.46523063 13.89533342 4.46523063 16.0625 4.625 C17.361875 4.74875 18.66125 4.8725 20 5 C20 5.99 20 6.98 20 8 C20.92232422 7.94779297 20.92232422 7.94779297 21.86328125 7.89453125 C22.67152344 7.86746094 23.47976563 7.84039062 24.3125 7.8125 C25.51326172 7.76029297 25.51326172 7.76029297 26.73828125 7.70703125 C29.53324585 8.0690733 30.11855926 8.9958566 32 11 C35.61023099 11.73041853 35.61023099 11.73041853 39 12 C39 12.66 39 13.32 39 14 C40.98 14 42.96 14 45 14 C45 14.33 45 14.66 45 15 C40.71 15 36.42 15 32 15 C31.67 14.01 31.34 13.02 31 12 C29.865625 11.855625 28.73125 11.71125 27.5625 11.5625 C24 11 24 11 23 10 C21.948125 9.896875 20.89625 9.79375 19.8125 9.6875 C16 9 16 9 13.125 7.0625 C9.62862661 4.75489356 6.93448397 4.19793815 2.85546875 3.58984375 C2.24316406 3.39519531 1.63085938 3.20054687 1 3 C0.67 2.01 0.34 1.02 0 0 Z " fill="#818181" transform="translate(233,423)"/>
<path d="M0 0 C0.33 1.32 0.66 2.64 1 4 C0.01 4.495 0.01 4.495 -1 5 C-2.02215403 6.75682725 -3.04195448 8.51600076 -4 10.30859375 C-5 12 -5 12 -7 14 C-7.99 14 -8.98 14 -10 14 C-10 14.66 -10 15.32 -10 16 C-10.66 16 -11.32 16 -12 16 C-11.938125 16.94875 -11.87625 17.8975 -11.8125 18.875 C-11.874375 19.90625 -11.93625 20.9375 -12 22 C-15 24 -15 24 -18 24 C-18 25.32 -18 26.64 -18 28 C-18.66 28.33 -19.32 28.66 -20 29 C-20.66 29.99 -21.32 30.98 -22 32 C-21.855625 31.29875 -21.71125 30.5975 -21.5625 29.875 C-20.98521625 26.92443859 -20.48304859 23.96729849 -20 21 C-18.68 21 -17.36 21 -16 21 C-15.773125 19.9275 -15.54625 18.855 -15.3125 17.75 C-13.82560932 13.50174092 -12.57544755 12.5538911 -9 10 C-7.64613064 8.34997172 -6.31321858 6.6825613 -5 5 C-3.35216394 3.31471312 -1.68997323 1.64302953 0 0 Z " fill="#949494" transform="translate(190,188)"/>
<path d="M0 0 C0.33 0 0.66 0 1 0 C1.28125369 6.95321611 0.88096949 13.82876036 0.25 20.75 C0.18828613 21.55348877 0.12657227 22.35697754 0.06298828 23.18481445 C-0.48851453 28.73137342 -1.93412583 32.33887422 -5 37 C-7.12472576 37.05386629 -9.24983652 37.09273071 -11.375 37.125 C-12.55835938 37.14820313 -13.74171875 37.17140625 -14.9609375 37.1953125 C-18 37 -18 37 -20 35 C-15.05 35 -10.1 35 -5 35 C-5 33.35 -5 31.7 -5 30 C-4.67 29.67 -4.34 29.34 -4 29 C-3.76298761 26.14122091 -3.57780818 23.30116703 -3.4375 20.4375 C-3.39431641 19.63119141 -3.35113281 18.82488281 -3.30664062 17.99414062 C-3.20024738 15.99631195 -3.09959112 13.9981793 -3 12 C-2.34 12 -1.68 12 -1 12 C-0.67 8.04 -0.34 4.08 0 0 Z " fill="#797979" transform="translate(411,184)"/>
<path d="M0 0 C1.32 0 2.64 0 4 0 C4.433125 0.639375 4.86625 1.27875 5.3125 1.9375 C6.96191056 4.39687765 6.96191056 4.39687765 10.6875 4.75 C11.780625 4.8325 12.87375 4.915 14 5 C14 5.99 14 6.98 14 8 C14.62648438 8.13277344 15.25296875 8.26554687 15.8984375 8.40234375 C16.71570313 8.57894531 17.53296875 8.75554687 18.375 8.9375 C19.18710937 9.11152344 19.99921875 9.28554688 20.8359375 9.46484375 C23 10 23 10 25 11 C25 11.66 25 12.32 25 13 C27.31 13 29.62 13 32 13 C32.66 14.32 33.32 15.64 34 17 C29.18061476 17.23509196 25.53701494 16.45184478 21 15 C21 14.01 21 13.02 21 12 C17.34543185 11.24758891 13.68266103 10.59950296 10 10 C9.67 9.01 9.34 8.02 9 7 C7.34928604 5.97388051 5.68029994 4.97691857 4 4 C2.63015802 2.70420353 1.2848951 1.38007251 0 0 Z " fill="#353535" transform="translate(254,387)"/>
<path d="M0 0 C1.98 0.99 1.98 0.99 4 2 C4 3.98 4 5.96 4 8 C4.66 8 5.32 8 6 8 C6.02886984 11.97915159 6.04675406 15.95827653 6.0625 19.9375 C6.07087891 21.07380859 6.07925781 22.21011719 6.08789062 23.38085938 C6.09111328 24.46044922 6.09433594 25.54003906 6.09765625 26.65234375 C6.10289307 27.65257568 6.10812988 28.65280762 6.11352539 29.68334961 C6 32 6 32 5 33 C4.855625 34.155 4.71125 35.31 4.5625 36.5 C4.376875 37.655 4.19125 38.81 4 40 C3.01 40.495 3.01 40.495 2 41 C2.33 28.46 2.66 15.92 3 3 C2.34 3 1.68 3 1 3 C0.67 2.01 0.34 1.02 0 0 Z " fill="#424242" transform="translate(375,341)"/>
<path d="M0 0 C1.2065625 0.0309375 1.2065625 0.0309375 2.4375 0.0625 C1.81875 0.35125 1.2 0.64 0.5625 0.9375 C-1.69575765 1.99970042 -1.69575765 1.99970042 -3.5625 4.0625 C-4.5525 4.0625 -5.5425 4.0625 -6.5625 4.0625 C-6.5625 4.7225 -6.5625 5.3825 -6.5625 6.0625 C-7.7690625 6.5265625 -7.7690625 6.5265625 -9 7 C-11.45330405 7.82585345 -11.45330405 7.82585345 -12.5625 9.0625 C-14.22867115 9.10313832 -15.89638095 9.105221 -17.5625 9.0625 C-17.5625 10.0525 -17.5625 11.0425 -17.5625 12.0625 C-18.5525 12.0625 -19.5425 12.0625 -20.5625 12.0625 C-20.5625 12.7225 -20.5625 13.3825 -20.5625 14.0625 C-21.42875 14.31 -22.295 14.5575 -23.1875 14.8125 C-26.77334708 16.14059151 -29.44116848 17.8709268 -32.5625 20.0625 C-33.47 20.59875 -34.3775 21.135 -35.3125 21.6875 C-37.65398187 22.99755485 -37.65398187 22.99755485 -39.5625 25.0625 C-40.5525 24.7325 -41.5425 24.4025 -42.5625 24.0625 C-41.50762267 23.09578244 -40.44316719 22.13951255 -39.375 21.1875 C-38.48748047 20.38699219 -38.48748047 20.38699219 -37.58203125 19.5703125 C-35.33118951 17.8898001 -33.16769202 17.09914124 -30.5625 16.0625 C-28.61909569 14.83294392 -26.70374707 13.55836272 -24.8125 12.25 C-17.99638766 7.63614509 -11.49231704 3.44144511 -3.5625 1.0625 C-2.5625 0.0625 -2.5625 0.0625 0 0 Z " fill="#9E9E9E" transform="translate(241.5625,154.9375)"/>
<path d="M0 0 C-3.85905949 1.92952974 -6.26132535 3.12483821 -10.625 3.0625 C-11.85089844 3.04896484 -11.85089844 3.04896484 -13.1015625 3.03515625 C-13.72804688 3.02355469 -14.35453125 3.01195312 -15 3 C-15.33 3.99 -15.66 4.98 -16 6 C-17.15757812 6.06058594 -18.31515625 6.12117188 -19.5078125 6.18359375 C-21.04688457 6.26805502 -22.58594655 6.35270018 -24.125 6.4375 C-24.88554687 6.47681641 -25.64609375 6.51613281 -26.4296875 6.55664062 C-30.69276319 6.79551987 -34.78571807 7.28972776 -39 8 C-40.79067806 8.06305204 -42.58337579 8.08671114 -44.375 8.0625 C-45.68597656 8.04896484 -45.68597656 8.04896484 -47.0234375 8.03515625 C-48.00183594 8.01775391 -48.00183594 8.01775391 -49 8 C-49 7.67 -49 7.34 -49 7 C-46.36 7 -43.72 7 -41 7 C-41 6.34 -41 5.68 -41 5 C-39.21142578 4.80083984 -39.21142578 4.80083984 -37.38671875 4.59765625 C-35.82029322 4.41944017 -34.25388802 4.24104544 -32.6875 4.0625 C-31.90181641 3.97548828 -31.11613281 3.88847656 -30.30664062 3.79882812 C-29.1706543 3.66831055 -29.1706543 3.66831055 -28.01171875 3.53515625 C-26.96697388 3.41732788 -26.96697388 3.41732788 -25.90112305 3.29711914 C-23.78351766 3.02003217 -23.78351766 3.02003217 -21 2 C-17.64720828 1.6924828 -14.29380703 1.4910292 -10.93359375 1.28125 C-7.0419733 0.9081519 -4.06516173 -0.08837308 0 0 Z " fill="#565656" transform="translate(387,432)"/>
<path d="M0 0 C0 3.96115513 -1.43725543 5.11212473 -3.875 8.1875 C-7.37528324 12.838053 -9.13570699 16.27405882 -10 22 C-10.99 22 -11.98 22 -13 22 C-13 24.31 -13 26.62 -13 29 C-13.66 29 -14.32 29 -15 29 C-15.33 31.64 -15.66 34.28 -16 37 C-16.66 37 -17.32 37 -18 37 C-17.855625 36.154375 -17.71125 35.30875 -17.5625 34.4375 C-17.1856633 32.13460908 -16.8735971 29.82023964 -16.625 27.5 C-15.97440865 23.85668846 -14.80194161 21.21215679 -13 18 C-12.34 18 -11.68 18 -11 18 C-11 16.35 -11 14.7 -11 13 C-10.34 12.67 -9.68 12.34 -9 12 C-8.67 11.01 -8.34 10.02 -8 9 C-7.34 9 -6.68 9 -6 9 C-6 7.35 -6 5.7 -6 4 C-4.68 4 -3.36 4 -2 4 C-1.34 2.68 -0.68 1.36 0 0 Z " fill="#676767" transform="translate(231,208)"/>
<path d="M0 0 C1.84368164 0.00676758 1.84368164 0.00676758 3.72460938 0.01367188 C6.71229356 0.02529711 9.69986855 0.04163441 12.6875 0.0625 C13.1825 1.5475 13.1825 1.5475 13.6875 3.0625 C15.3375 3.0625 16.9875 3.0625 18.6875 3.0625 C18.6875 3.3925 18.6875 3.7225 18.6875 4.0625 C11.9375 4.1875 11.9375 4.1875 9.6875 3.0625 C6.91589374 2.97566555 4.16975235 2.9469421 1.3984375 2.96484375 C0.58001373 2.9662587 -0.23841003 2.96767365 -1.08163452 2.96913147 C-3.70029325 2.9747371 -6.31886704 2.98729052 -8.9375 3 C-10.71093627 3.00501428 -12.48437387 3.00957731 -14.2578125 3.01367188 C-18.60940782 3.02470836 -22.9609395 3.04197675 -27.3125 3.0625 C-27.3125 2.4025 -27.3125 1.7425 -27.3125 1.0625 C-18.1867143 0.21817207 -9.16180552 -0.06511945 0 0 Z " fill="#A5A5A5" transform="translate(322.3125,169.9375)"/>
<path d="M0 0 C2.14576637 -0.02685938 4.29162645 -0.04633088 6.4375 -0.0625 C7.63246094 -0.07410156 8.82742188 -0.08570313 10.05859375 -0.09765625 C13 0 13 0 14 1 C16.52596259 1.23653523 19.03107207 1.42173692 21.5625 1.5625 C22.27341797 1.60568359 22.98433594 1.64886719 23.71679688 1.69335938 C25.47761912 1.79971777 27.2387832 1.90038846 29 2 C29 2.66 29 3.32 29 4 C29.68707031 3.96519531 30.37414062 3.93039063 31.08203125 3.89453125 C31.98308594 3.86746094 32.88414062 3.84039062 33.8125 3.8125 C34.70582031 3.77769531 35.59914063 3.74289063 36.51953125 3.70703125 C39.46633225 4.05507861 40.11816611 4.80452713 42 7 C44.10332891 7.71447643 44.10332891 7.71447643 46 8 C46 8.66 46 9.32 46 10 C41.51474352 9.343621 37.33085971 8.29925791 33 7 C33 6.34 33 5.68 33 5 C32.37738281 4.96261719 31.75476563 4.92523438 31.11328125 4.88671875 C20.66921575 4.14383543 10.3499805 2.54609742 0 1 C0 0.67 0 0.34 0 0 Z " fill="#505050" transform="translate(338,141)"/>
<path d="M0 0 C0.33 0 0.66 0 1 0 C2.28808854 4.55124617 3.10208032 8.71132999 3.375 13.4375 C3.77466803 18.74420322 5.07337567 25.07337567 9 29 C9.12375 30.258125 9.2475 31.51625 9.375 32.8125 C9.76463873 36.38312381 10.58347835 38.26827987 13 41 C13 41.66 13 42.32 13 43 C12.34 43 11.68 43 11 43 C10.505 41.515 10.505 41.515 10 40 C9.34 39.67 8.68 39.34 8 39 C7.5859375 36.71484375 7.5859375 36.71484375 7.375 33.9375 C7.30023438 33.01839844 7.22546875 32.09929687 7.1484375 31.15234375 C7.09945312 30.44207031 7.05046875 29.73179687 7 29 C6.34 29 5.68 29 5 29 C5 28.01 5 27.02 5 26 C4.01 25.67 3.02 25.34 2 25 C2 21.7 2 18.4 2 15 C1.34 15 0.68 15 0 15 C0 10.05 0 5.1 0 0 Z " fill="#989898" transform="translate(209,302)"/>
<path d="M0 0 C0.99 0.33 1.98 0.66 3 1 C3 1.66 3 2.32 3 3 C3.66 3 4.32 3 5 3 C5 3.99 5 4.98 5 6 C5.99 6.33 6.98 6.66 8 7 C11 11.33333333 11 11.33333333 11 14 C11.99 14.33 12.98 14.66 14 15 C14 15.99 14 16.98 14 18 C14.99 18.33 15.98 18.66 17 19 C17.69258229 20.99117408 18.35747635 22.9921136 19 25 C20.49886871 26.83689476 20.49886871 26.83689476 22 28 C21.67 28.66 21.34 29.32 21 30 C20.34 29.34 19.68 28.68 19 28 C18.360625 27.896875 17.72125 27.79375 17.0625 27.6875 C15 27 15 27 13.25 24.8125 C11.84173016 21.64389285 11.76070776 19.42985545 12 16 C11.34 16 10.68 16 10 16 C7.95830515 13.09451118 7 11.59857954 7 8 C6.401875 7.979375 5.80375 7.95875 5.1875 7.9375 C3 7 3 7 1.25 3.4375 C0.8375 2.303125 0.425 1.16875 0 0 Z " fill="#979797" transform="translate(369,189)"/>
<path d="M0 0 C0.99 0 1.98 0 3 0 C4.43509221 2.87018441 4.11158506 5.33543723 4.09765625 8.5390625 C4.09443359 9.84101563 4.09121094 11.14296875 4.08789062 12.484375 C4.07953466 13.86458399 4.07106971 15.24479232 4.0625 16.625 C4.05748501 18.01301926 4.0529221 19.40104022 4.04882812 20.7890625 C4.03700976 24.19275132 4.02053434 27.59635439 4 31 C3.34 31.33 2.68 31.66 2 32 C1.59270772 34.32156597 1.25561323 36.6568787 1 39 C0.34 38.67 -0.32 38.34 -1 38 C-0.125 31.125 -0.125 31.125 1 30 C1.15764405 28.22130274 1.25100677 26.43681524 1.31640625 24.65234375 C1.35830078 23.57275391 1.40019531 22.49316406 1.44335938 21.38085938 C1.48267578 20.24455078 1.52199219 19.10824219 1.5625 17.9375 C1.60568359 16.79732422 1.64886719 15.65714844 1.69335938 14.48242188 C1.79982839 11.65507805 1.90184207 8.82764262 2 6 C1.34 6 0.68 6 0 6 C0 4.02 0 2.04 0 0 Z " fill="#959595" transform="translate(379,343)"/>
<path d="M0 0 C-0.99 0.66 -1.98 1.32 -3 2 C-6.3442176 10.44917168 -5.68074732 21.14928251 -6.125 30.125 C-6.21157239 31.76566034 -6.2988067 33.4062859 -6.38671875 35.046875 C-6.59877821 39.03089003 -6.80187826 43.01526855 -7 47 C-7.33 47 -7.66 47 -8 47 C-8 34.46 -8 21.92 -8 9 C-7.34 9 -6.68 9 -6 9 C-6 6.03 -6 3.06 -6 0 C-3 -1 -3 -1 0 0 Z " fill="#9E9E9E" transform="translate(436,335)"/>
<path d="M0 0 C3.08624656 3.52713892 5.04750322 6.9635901 6.875 11.23046875 C8.27376512 13.43060973 9.69263353 13.87613363 12 15 C12.75708637 16.64583993 13.50380365 18.29913816 14.1484375 19.9921875 C16.12389275 24.64991227 19.20296993 28.8044549 22 33 C19.19738258 32.69701433 17.47666012 32.43999396 15.375 30.5 C13.3635963 26.84290237 12.21660139 22.97960576 11 19 C10.3530435 15.91202978 10.3530435 15.91202978 8.125 15 C7.42375 14.67 6.7225 14.34 6 14 C4.25 12.6875 4.25 12.6875 3 11 C2.8125 8.3125 2.8125 8.3125 3 6 C2.34 6 1.68 6 1 6 C0.67 4.02 0.34 2.04 0 0 Z " fill="#7C7C7C" transform="translate(222,345)"/>
<path d="M0 0 C0.99966797 0.19916016 0.99966797 0.19916016 2.01953125 0.40234375 C2.94121094 0.57894531 3.86289062 0.75554687 4.8125 0.9375 C5.70582031 1.11152344 6.59914063 1.28554688 7.51953125 1.46484375 C16.9115756 2.9089628 26.19771879 3.13176848 35.6875 3.0625 C36.87794922 3.05798828 38.06839844 3.05347656 39.29492188 3.04882812 C42.19666936 3.03717452 45.09830626 3.02081559 48 3 C48 3.66 48 4.32 48 5 C42.60653012 5.02464849 37.21309275 5.04283531 31.81958008 5.05493164 C29.98331125 5.05997231 28.14704646 5.06680477 26.31079102 5.07543945 C23.67723599 5.08751672 21.04373384 5.09323081 18.41015625 5.09765625 C17.17109276 5.10539818 17.17109276 5.10539818 15.90699768 5.11329651 C13.93763632 5.11349205 11.96838386 5.06204152 10 5 C9.67 4.67 9.34 4.34 9 4 C7.48530552 3.76807135 5.96245438 3.58784762 4.4375 3.4375 C3.61121094 3.35371094 2.78492188 3.26992188 1.93359375 3.18359375 C1.29550781 3.12300781 0.65742188 3.06242187 0 3 C0 2.01 0 1.02 0 0 Z " fill="#989898" transform="translate(289,405)"/>
<path d="M0 0 C1.70840281 1.63412443 2.93453047 2.86906094 4 5 C6.32156597 5.40729228 8.6568787 5.74438677 11 6 C11 6.99 11 7.98 11 9 C12.093125 8.896875 13.18625 8.79375 14.3125 8.6875 C15.529375 8.790625 16.74625 8.89375 18 9 C19.8125 11.375 19.8125 11.375 21 14 C21.66 14.66 22.32 15.32 23 16 C20.39356086 15.4987617 18.50490483 14.74168947 16.125 13.5 C13.00452217 12.00217064 10.41723537 11.40681373 7 11 C6.67 10.01 6.34 9.02 6 8 C4.7625 7.319375 4.7625 7.319375 3.5 6.625 C1 5 1 5 0.1875 2.3125 C0.0946875 1.1678125 0.0946875 1.1678125 0 0 Z " fill="#9C9C9C" transform="translate(350,323)"/>
<path d="M0 0 C1.18851562 0.00902344 2.37703125 0.01804688 3.6015625 0.02734375 C4.51679688 0.03894531 5.43203125 0.05054688 6.375 0.0625 C6.045 1.0525 5.715 2.0425 5.375 3.0625 C-2.875 3.0625 -11.125 3.0625 -19.625 3.0625 C-19.625 3.7225 -19.625 4.3825 -19.625 5.0625 C-21.605 5.0625 -23.585 5.0625 -25.625 5.0625 C-25.625 4.4025 -25.625 3.7425 -25.625 3.0625 C-21.10575028 1.55608343 -16.51313371 1.61743858 -11.77734375 1.34375 C-7.59800116 0.97087185 -4.36624288 -0.0428063 0 0 Z " fill="#B6B6B6" transform="translate(294.625,141.9375)"/>
<path d="M0 0 C0.33 0 0.66 0 1 0 C1.04898438 1.09699219 1.09796875 2.19398438 1.1484375 3.32421875 C1.22350591 4.77866925 1.29905197 6.23309516 1.375 7.6875 C1.4059375 8.40873047 1.436875 9.12996094 1.46875 9.87304688 C1.69669791 14.0330963 2.35809861 17.13358705 4 21 C4.1953125 23.45703125 4.1953125 23.45703125 4.125 25.8125 C4.10695312 26.60269531 4.08890625 27.39289063 4.0703125 28.20703125 C4.03550781 29.09455078 4.03550781 29.09455078 4 30 C4.66 30 5.32 30 6 30 C6 32.64 6 35.28 6 38 C5.34 38 4.68 38 4 38 C1.88527239 32.92465373 1.5765522 28.03159117 1.24609375 22.609375 C1.16036188 20.0196772 1.16036188 20.0196772 0 18 C-0.08308638 16.62451844 -0.10736016 15.24514204 -0.09765625 13.8671875 C-0.09443359 13.06152344 -0.09121094 12.25585938 -0.08789062 11.42578125 C-0.07951172 10.58402344 -0.07113281 9.74226563 -0.0625 8.875 C-0.05798828 8.02550781 -0.05347656 7.17601562 -0.04882812 6.30078125 C-0.03702874 4.20049091 -0.01909306 2.1002367 0 0 Z " fill="#808080" transform="translate(152,297)"/>
<path d="M0 0 C0.66 0 1.32 0 2 0 C3.30713074 2.61426148 3.29697075 4.83508003 3.5 7.75 C3.8130742 11.88456723 4.20746716 15.92411682 5 20 C5.66 20 6.32 20 7 20 C7.33 22.97 7.66 25.94 8 29 C7.34 29 6.68 29 6 29 C4.64560332 26.29120665 4.93498549 23.99066732 5 21 C4.34 21 3.68 21 3 21 C2.86722656 20.21753906 2.73445312 19.43507813 2.59765625 18.62890625 C2.42105469 17.61699219 2.24445313 16.60507812 2.0625 15.5625 C1.88847656 14.55316406 1.71445313 13.54382813 1.53515625 12.50390625 C1.25248903 10.0712562 1.25248903 10.0712562 0 9 C-0.07179964 7.48071962 -0.08392007 5.95832518 -0.0625 4.4375 C-0.05347656 3.61121094 -0.04445312 2.78492188 -0.03515625 1.93359375 C-0.02355469 1.29550781 -0.01195312 0.65742188 0 0 Z " fill="#3D3D3D" transform="translate(151,315)"/>
<path d="M0 0 C1.65322266 0.01740234 1.65322266 0.01740234 3.33984375 0.03515625 C4.44457031 0.04417969 5.54929687 0.05320312 6.6875 0.0625 C7.54214844 0.07410156 8.39679688 0.08570313 9.27734375 0.09765625 C9.27734375 0.42765625 9.27734375 0.75765625 9.27734375 1.09765625 C3.33493008 2.84542498 -2.33616288 3.47583967 -8.51171875 3.87890625 C-12.60139446 4.15752163 -16.65262825 4.61477157 -20.72265625 5.09765625 C-20.72265625 4.10765625 -20.72265625 3.11765625 -20.72265625 2.09765625 C-18.89927734 2.00677734 -18.89927734 2.00677734 -17.0390625 1.9140625 C-15.45441397 1.82967293 -13.86977923 1.74502415 -12.28515625 1.66015625 C-11.48271484 1.62083984 -10.68027344 1.58152344 -9.85351562 1.54101562 C-6.22305896 1.34187665 -3.34214624 0.11987612 0 0 Z " fill="#B6B6B6" transform="translate(377.72265625,430.90234375)"/>
<path d="M0 0 C0 3.11227195 -0.45627049 5.94152152 -1 9 C-1.66 9 -2.32 9 -3 9 C-3 11.97 -3 14.94 -3 18 C-3.99 18 -4.98 18 -6 18 C-6 21.3 -6 24.6 -6 28 C-6.99 28.33 -7.98 28.66 -9 29 C-8.48041715 24.62065881 -7.94324258 20.31196609 -7 16 C-6.34 16 -5.68 16 -5 16 C-4.96261719 15.41992188 -4.92523438 14.83984375 -4.88671875 14.2421875 C-4.4500162 9.05313371 -3.89250201 3.89250201 0 0 Z " fill="#929292" transform="translate(167,220)"/>
<path d="M0 0 C0 0.99 0 1.98 0 3 C-2.31 3.33 -4.62 3.66 -7 4 C-7 4.66 -7 5.32 -7 6 C-7.99 6 -8.98 6 -10 6 C-10 6.66 -10 7.32 -10 8 C-11.79036458 8.9765625 -13.58072917 9.953125 -15.37109375 10.9296875 C-17.16618315 11.91410024 -17.16618315 11.91410024 -18 14 C-18.99 14 -19.98 14 -21 14 C-21.33 14.99 -21.66 15.98 -22 17 C-22.66 16.67 -23.32 16.34 -24 16 C-20.93131882 10.2629004 -16.99794166 7.49638087 -11 5 C-10.01 5 -9.02 5 -8 5 C-8 4.34 -8 3.68 -8 3 C-2.25 0 -2.25 0 0 0 Z " fill="#646464" transform="translate(261,185)"/>
<path d="M0 0 C0.33 0 0.66 0 1 0 C1.87955528 4.53040777 2.13444185 8.82515554 2.125 13.4375 C2.12757812 14.69433594 2.13015625 15.95117188 2.1328125 17.24609375 C2.00243134 20.93127902 1.59062733 24.36717317 1 28 C0.34 28 -0.32 28 -1 28 C-1.33 29.32 -1.66 30.64 -2 32 C-3.33332095 29.3333581 -2.67102033 27.83319697 -2 25 C-1.34 25 -0.68 25 0 25 C0 16.75 0 8.5 0 0 Z " fill="#448EA4" transform="translate(115,284)"/>
<path d="M0 0 C0.99 0.33 1.98 0.66 3 1 C3 2.65 3 4.3 3 6 C3.66 6 4.32 6 5 6 C5.33 8.64 5.66 11.28 6 14 C6.66 14 7.32 14 8 14 C8 15.65 8 17.3 8 19 C8.66 19 9.32 19 10 19 C10.33 21.31 10.66 23.62 11 26 C10 24.66666667 9 23.33333333 8 22 C7.195625 21.13375 7.195625 21.13375 6.375 20.25 C4.65041369 17.42794967 4.59996109 15.12872736 4.3125 11.8828125 C3.89169756 9.34747779 2.58499576 7.9812447 1 6 C0.3125 2.75 0.3125 2.75 0 0 Z " fill="#484848" transform="translate(213,321)"/>
<path d="M0 0 C0.66 0.33 1.32 0.66 2 1 C4.60852333 10.06379311 3.1918987 20.76278504 2 30 C1.34 30 0.68 30 0 30 C-0.33 30.66 -0.66 31.32 -1 32 C-1 30.35 -1 28.7 -1 27 C-0.34 27 0.32 27 1 27 C0.67 18.09 0.34 9.18 0 0 Z " fill="#7F5C2A" transform="translate(557,282)"/>
<path d="M0 0 C1.32 0 2.64 0 4 0 C4.433125 0.639375 4.86625 1.27875 5.3125 1.9375 C6.96191056 4.39687765 6.96191056 4.39687765 10.6875 4.75 C11.780625 4.8325 12.87375 4.915 14 5 C14 5.99 14 6.98 14 8 C14.99 8 15.98 8 17 8 C17.33 8.66 17.66 9.32 18 10 C18.99 10.66 19.98 11.32 21 12 C20.29875 11.855625 19.5975 11.71125 18.875 11.5625 C15.92443859 10.98521625 12.96729849 10.48304859 10 10 C9.67 9.01 9.34 8.02 9 7 C7.34928604 5.97388051 5.68029994 4.97691857 4 4 C2.63015802 2.70420353 1.2848951 1.38007251 0 0 Z " fill="#585858" transform="translate(254,387)"/>
<path d="M0 0 C0.66 0.33 1.32 0.66 2 1 C1.67 1.99 1.34 2.98 1 4 C0.01 4 -0.98 4 -2 4 C-2 4.66 -2 5.32 -2 6 C-2.99 6.33 -3.98 6.66 -5 7 C-6.79975934 9.78805764 -7.32334791 12.27539224 -7.6328125 15.546875 C-7.71660156 16.39121094 -7.80039062 17.23554688 -7.88671875 18.10546875 C-7.96535156 18.97816406 -8.04398437 19.85085938 -8.125 20.75 C-8.21136719 21.63816406 -8.29773438 22.52632813 -8.38671875 23.44140625 C-8.59823066 25.62702936 -8.80240227 27.81308238 -9 30 C-9.33 30 -9.66 30 -10 30 C-10.48581142 12.7806841 -10.48581142 12.7806841 -8 7 C-5.921875 5.73046875 -5.921875 5.73046875 -4 5 C-4 4.01 -4 3.02 -4 2 C-2.68 2 -1.36 2 0 2 C0 1.34 0 0.68 0 0 Z " fill="#636363" transform="translate(440,330)"/>
<path d="M0 0 C0.33 0 0.66 0 1 0 C1.11381955 6.76594019 0.88021369 13.28837062 0 20 C-0.66 20 -1.32 20 -2 20 C-2 22.64 -2 25.28 -2 28 C-2.33 28 -2.66 28 -3 28 C-3 22.72 -3 17.44 -3 12 C-2.34 12 -1.68 12 -1 12 C-0.67 8.04 -0.34 4.08 0 0 Z " fill="#A5A5A5" transform="translate(411,184)"/>
<path d="M0 0 C3.22670963 1.57734243 5.72667727 3.19324409 8 6 C8.71117473 10.4082375 8.47292206 14.57292401 8 19 C7.34 19 6.68 19 6 19 C6 14.71 6 10.42 6 6 C4.68 5.67 3.36 5.34 2 5 C1.34 4.67 0.68 4.34 0 4 C0 2.68 0 1.36 0 0 Z " fill="#949494" transform="translate(406,163)"/>
<path d="M0 0 C0.33 1.32 0.66 2.64 1 4 C0.01 4.495 0.01 4.495 -1 5 C-2.02215403 6.75682725 -3.04195448 8.51600076 -4 10.30859375 C-5 12 -5 12 -7 14 C-7.99 13.67 -8.98 13.34 -10 13 C-8.75760079 8.30649188 -6.22992078 6.22482324 -2.55859375 3.33203125 C-0.86950777 2.06350705 -0.86950777 2.06350705 0 0 Z " fill="#A6A6A6" transform="translate(190,188)"/>
<path d="M0 0 C2.64 0 5.28 0 8 0 C8 0.33 8 0.66 8 1 C6.70255859 1.41958984 6.70255859 1.41958984 5.37890625 1.84765625 C2.17607493 2.93995132 -0.93666346 4.14279867 -4.0625 5.4375 C-5.56490234 6.05431641 -5.56490234 6.05431641 -7.09765625 6.68359375 C-9.87787128 7.94460649 -12.41859794 9.37537448 -15 11 C-14.67 9.35 -14.34 7.7 -14 6 C-13.43410156 5.86722656 -12.86820313 5.73445312 -12.28515625 5.59765625 C-11.18494141 5.33275391 -11.18494141 5.33275391 -10.0625 5.0625 C-9.33160156 4.88847656 -8.60070312 4.71445313 -7.84765625 4.53515625 C-6.00030102 4.16112431 -6.00030102 4.16112431 -5 3 C-3.33382885 2.95936168 -1.66611905 2.957279 0 3 C0 2.01 0 1.02 0 0 Z " fill="#606060" transform="translate(236,154)"/>
<path d="M0 0 C0.33 0.66 0.66 1.32 1 2 C0.67 2.99 0.34 3.98 0 5 C-0.66 5 -1.32 5 -2 5 C-2.33 13.25 -2.66 21.5 -3 30 C-3.33 30 -3.66 30 -4 30 C-4.02929977 26.64585201 -4.0468989 23.29173747 -4.0625 19.9375 C-4.07087891 18.99455078 -4.07925781 18.05160156 -4.08789062 17.08007812 C-4.12358901 6.83464298 -4.12358901 6.83464298 -3 2 C-2.01 1.34 -1.02 0.68 0 0 Z " fill="#33606E" transform="translate(39,277)"/>
<path d="M0 0 C1.2065625 0.0309375 1.2065625 0.0309375 2.4375 0.0625 C-0.73718804 1.78212269 -4.02159272 3.03036022 -7.40625 4.26171875 C-8.85420934 4.79945727 -10.29206149 5.36516229 -11.71875 5.95703125 C-15.4720992 7.49058251 -17.69174071 8.32991676 -21.5625 7.0625 C-16.21788316 4.45968423 -11.16786806 2.54474719 -5.3125 1.45703125 C-2.73835276 0.87669895 -2.92071163 0.07123687 0 0 Z " fill="#525252" transform="translate(282.5625,176.9375)"/>
<path d="M0 0 C1.485 0.99 1.485 0.99 3 2 C3 2.99 3 3.98 3 5 C3.598125 5.268125 4.19625 5.53625 4.8125 5.8125 C6.99847854 6.99917406 8.41332594 8.09599113 10 10 C10 10.66 10 11.32 10 12 C10.66 12 11.32 12 12 12 C12 12.99 12 13.98 12 15 C9 14 9 14 7.5625 11.5625 C5.90447019 8.84333111 4.91563061 8.10592885 2 7 C2 6.34 2 5.68 2 5 C1.34 5 0.68 5 0 5 C0 3.35 0 1.7 0 0 Z " fill="#727272" transform="translate(173,372)"/>
<path d="M0 0 C-0.33 0.99 -0.66 1.98 -1 3 C-7.27 3 -13.54 3 -20 3 C-20 3.66 -20 4.32 -20 5 C-22.64 5 -25.28 5 -28 5 C-28 4.67 -28 4.34 -28 4 C-25.69 4 -23.38 4 -21 4 C-21 3.34 -21 2.68 -21 2 C-19.96359375 1.93941406 -18.9271875 1.87882812 -17.859375 1.81640625 C-16.48957127 1.73196629 -15.11978025 1.64732003 -13.75 1.5625 C-13.06808594 1.52318359 -12.38617188 1.48386719 -11.68359375 1.44335938 C-7.755128 1.19544649 -3.87076415 0 0 0 Z " fill="#333333" transform="translate(427,427)"/>
<path d="M0 0 C5.28 0 10.56 0 16 0 C16 0.33 16 0.66 16 1 C13.69 1 11.38 1 9 1 C9 1.66 9 2.32 9 3 C5.7 3 2.4 3 -1 3 C-0.67 2.01 -0.34 1.02 0 0 Z " fill="#B0B0B0" transform="translate(410,425)"/>
<path d="M0 0 C0.44730469 0.39832031 0.89460937 0.79664063 1.35546875 1.20703125 C4.09777661 3.61020509 6.64496641 5.79486948 9.8125 7.625 C12.30321632 9.19059311 12.8834446 10.33744482 14 13 C14.66 13.66 15.32 14.32 16 15 C14.35 14.67 12.7 14.34 11 14 C10.9175 13.38125 10.835 12.7625 10.75 12.125 C9.74559185 9.27917691 8.68537484 9.30639857 6 8 C3.85074023 6.1397605 1.79741329 4.20482697 0 2 C0 1.34 0 0.68 0 0 Z " fill="#5D5D5D" transform="translate(187,390)"/>
<path d="M0 0 C0 4.00278065 -1.52449993 5.48797589 -3.875 8.6875 C-4.59429687 9.68136719 -5.31359375 10.67523438 -6.0546875 11.69921875 C-7.01761719 12.83810547 -7.01761719 12.83810547 -8 14 C-8.66 14 -9.32 14 -10 14 C-10.33 14.99 -10.66 15.98 -11 17 C-11 15.68 -11 14.36 -11 13 C-10.34 12.67 -9.68 12.34 -9 12 C-8.67 11.01 -8.34 10.02 -8 9 C-7.34 9 -6.68 9 -6 9 C-6 7.35 -6 5.7 -6 4 C-4.68 4 -3.36 4 -2 4 C-1.34 2.68 -0.68 1.36 0 0 Z " fill="#898989" transform="translate(231,208)"/>
<path d="M0 0 C0.53625 0.680625 1.0725 1.36125 1.625 2.0625 C4.35076561 5.43384168 7.16483178 8.72065543 10 12 C9.67 12.66 9.34 13.32 9 14 C8.34 13.34 7.68 12.68 7 12 C6.0409375 11.8453125 6.0409375 11.8453125 5.0625 11.6875 C3 11 3 11 1.25 8.8125 C-0.15826984 5.64389285 -0.23929224 3.42985545 0 0 Z " fill="#5D5D5D" transform="translate(381,205)"/>
<path d="M0 0 C1.32 0 2.64 0 4 0 C4 0.66 4 1.32 4 2 C4.99 2.33 5.98 2.66 7 3 C8.1875 5.5625 8.1875 5.5625 9 8 C10.65 8 12.3 8 14 8 C14 8.99 14 9.98 14 11 C10.64630514 10.40112592 8.53881228 9.27617653 6 7 C5.67 6.01 5.34 5.02 5 4 C3.35857037 2.9590934 1.69287785 1.95495674 0 1 C0 0.67 0 0.34 0 0 Z " fill="#ADADAD" transform="translate(193,395)"/>
<path d="M0 0 C3.63 0.33 7.26 0.66 11 1 C11 1.66 11 2.32 11 3 C12.98 3 14.96 3 17 3 C17 3.33 17 3.66 17 4 C12.71 4 8.42 4 4 4 C3.67 3.01 3.34 2.02 3 1 C2.01 0.67 1.02 0.34 0 0 Z " fill="#535353" transform="translate(261,434)"/>
<path d="M0 0 C0.70703125 1.671875 0.70703125 1.671875 1 4 C-0.36328125 6.578125 -0.36328125 6.578125 -2.3125 9.25 C-2.94800781 10.14203125 -3.58351563 11.0340625 -4.23828125 11.953125 C-5.11033203 12.96632813 -5.11033203 12.96632813 -6 14 C-6.66 14 -7.32 14 -8 14 C-8 12.68 -8 11.36 -8 10 C-7.34 10 -6.68 10 -6 10 C-5.731875 9.401875 -5.46375 8.80375 -5.1875 8.1875 C-4.00691239 6.01273336 -2.73183488 4.73183488 -1 3 C-0.67 2.01 -0.34 1.02 0 0 Z " fill="#686868" transform="translate(376,382)"/>
<path d="M0 0 C0 0.99 0 1.98 0 3 C-1.390625 4.24609375 -1.390625 4.24609375 -3.25 5.4375 C-6.16333189 7.38760045 -8.60653989 9.41506309 -11 12 C-10.690625 11.236875 -10.38125 10.47375 -10.0625 9.6875 C-9.32106407 7.81210323 -8.63771783 5.91315348 -8 4 C-7.34 4 -6.68 4 -6 4 C-6 3.34 -6 2.68 -6 2 C-4.02 1.34 -2.04 0.68 0 0 Z " fill="#525252" transform="translate(198,180)"/>
<path d="M0 0 C3.40312738 1.05875074 6.01353231 2.00902154 9 4 C10.98799818 4.70164642 12.98698517 5.37372872 15 6 C14.67 7.32 14.34 8.64 14 10 C13.4225 9.525625 12.845 9.05125 12.25 8.5625 C10.04957437 7.03442665 8.54785554 6.61499961 6 6 C5.67 5.34 5.34 4.68 5 4 C3.34051852 2.98812105 1.67419438 1.9873454 0 1 C0 0.67 0 0.34 0 0 Z " fill="#8A8A8A" transform="translate(354,179)"/>
<path d="M0 0 C3.3 0 6.6 0 10 0 C10 0.33 10 0.66 10 1 C8.88625 1.12375 7.7725 1.2475 6.625 1.375 C2.96896323 1.6465813 2.96896323 1.6465813 1 4 C-1.58064129 4.14497985 -4.04943884 4.18677545 -6.625 4.125 C-7.33140625 4.11597656 -8.0378125 4.10695313 -8.765625 4.09765625 C-10.51056098 4.07407603 -12.25532295 4.03820461 -14 4 C-14 3.67 -14 3.34 -14 3 C-9.71 3 -5.42 3 -1 3 C-0.67 2.01 -0.34 1.02 0 0 Z " fill="#404040" transform="translate(341,403)"/>
<path d="M0 0 C0.99 0 1.98 0 3 0 C3 4.62 3 9.24 3 14 C2.01 14 1.02 14 0 14 C0 9.38 0 4.76 0 0 Z " fill="#555555" transform="translate(348,313)"/>
<path d="M0 0 C0.33 0.66 0.66 1.32 1 2 C0.0625 4.125 0.0625 4.125 -1 6 C-1.66 6 -2.32 6 -3 6 C-3 7.32 -3 8.64 -3 10 C-3.99 10.495 -3.99 10.495 -5 11 C-5.66 11.99 -6.32 12.98 -7 14 C-6.855625 13.29875 -6.71125 12.5975 -6.5625 11.875 C-5.98521625 8.92443859 -5.48304859 5.96729849 -5 3 C-3.68 3 -2.36 3 -1 3 C-0.67 2.01 -0.34 1.02 0 0 Z " fill="#686868" transform="translate(175,206)"/>
<path d="M0 0 C-2.58470453 1.55082272 -4.32683471 2.03631497 -7.375 2.375 C-11.46708864 3.08053252 -13.61375625 4.69119744 -17 7 C-17.99 6.67 -18.98 6.34 -20 6 C-19.195625 5.54625 -18.39125 5.0925 -17.5625 4.625 C-14.91143428 3.25274335 -14.91143428 3.25274335 -14 1 C-11.34765625 0.33203125 -11.34765625 0.33203125 -8.0625 -0.1875 C-6.98097656 -0.36667969 -5.89945312 -0.54585937 -4.78515625 -0.73046875 C-2 -1 -2 -1 0 0 Z " fill="#939393" transform="translate(264,148)"/>
<path d="M0 0 C5.39795989 1.15058556 10.70987333 2.42421759 16 4 C16 4.33 16 4.66 16 5 C9.79029227 5.33266291 5.71735105 4.45029331 0 2 C0 1.34 0 0.68 0 0 Z " fill="#AFAFAF" transform="translate(371,148)"/>
<path d="M0 0 C0.33 0 0.66 0 1 0 C1 2.97 1 5.94 1 9 C1.66 9 2.32 9 3 9 C3 11.64 3 14.28 3 17 C2.34 17 1.68 17 1 17 C-0.13480527 13.39006828 -0.10015767 10.0157673 -0.0625 6.25 C-0.05347656 5.07953125 -0.04445312 3.9090625 -0.03515625 2.703125 C-0.02355469 1.81109375 -0.01195312 0.9190625 0 0 Z " fill="#9D9D9D" transform="translate(155,318)"/>
<path d="M0 0 C1.98 0 3.96 0 6 0 C2.66666667 2.66666667 -0.66666667 5.33333333 -4 8 C-4.66 7.67 -5.32 7.34 -6 7 C-5.67 6.34 -5.34 5.68 -5 5 C-4.34 5 -3.68 5 -3 5 C-2.67 4.01 -2.34 3.02 -2 2 C-1.34 2 -0.68 2 0 2 C0 1.34 0 0.68 0 0 Z " fill="#444444" transform="translate(214,165)"/>
<path d="M0 0 C0.66 0 1.32 0 2 0 C1.01 6.6 0.02 13.2 -1 20 C-1.33 20 -1.66 20 -2 20 C-2.10273214 13.63060749 -2.01329994 7.30497742 -1 1 C-0.67 0.67 -0.34 0.34 0 0 Z " fill="#989898" transform="translate(212,239)"/>
<path d="M0 0 C0.66 0.33 1.32 0.66 2 1 C1.01 1.66 0.02 2.32 -1 3 C-1.33 3.99 -1.66 4.98 -2 6 C-2.99 6 -3.98 6 -5 6 C-5 6.66 -5 7.32 -5 8 C-6.32 8 -7.64 8 -9 8 C-7.83917375 4.51752126 -7.09067524 4.11180756 -4.0625 2.25 C-3.35222656 1.80140625 -2.64195312 1.3528125 -1.91015625 0.890625 C-1.27980469 0.59671875 -0.64945313 0.3028125 0 0 Z " fill="#A4A4A4" transform="translate(226,161)"/>
<path d="M0 0 C2.64 0 5.28 0 8 0 C8 0.66 8 1.32 8 2 C2.63904667 3.12862175 -2.55306686 3.09688221 -8 3 C-8 2.67 -8 2.34 -8 2 C-5.36 2 -2.72 2 0 2 C0 1.34 0 0.68 0 0 Z " fill="#636363" transform="translate(346,437)"/>
<path d="M0 0 C5.9696537 1.55210996 11.8362082 3.1422429 16 8 C13.39356086 7.4987617 11.50490483 6.74168947 9.125 5.5 C6.00452217 4.00217064 3.41723537 3.40681373 0 3 C0 2.01 0 1.02 0 0 Z " fill="#5C5C5C" transform="translate(357,331)"/>
<path d="M0 0 C1.27230469 0.00902344 2.54460937 0.01804688 3.85546875 0.02734375 C5.31919922 0.04474609 5.31919922 0.04474609 6.8125 0.0625 C6.8125 0.3925 6.8125 0.7225 6.8125 1.0625 C3.1825 1.0625 -0.4475 1.0625 -4.1875 1.0625 C-4.1875 1.7225 -4.1875 2.3825 -4.1875 3.0625 C-6.1675 3.0625 -8.1475 3.0625 -10.1875 3.0625 C-10.1875 2.4025 -10.1875 1.7425 -10.1875 1.0625 C-6.62704823 -0.12431726 -3.74941663 -0.03439832 0 0 Z " fill="#A0A0A0" transform="translate(279.1875,143.9375)"/>
<path d="M0 0 C2.8203125 -0.29296875 2.8203125 -0.29296875 6.125 -0.1875 C7.76855469 -0.14689453 7.76855469 -0.14689453 9.4453125 -0.10546875 C10.28835938 -0.07066406 11.13140625 -0.03585937 12 0 C12 0.33 12 0.66 12 1 C7.15758367 2.33583899 3.06562383 3.25328119 -2 3 C-1.34 2.01 -0.68 1.02 0 0 Z " fill="#9E9E9E" transform="translate(375,431)"/>
<path d="M0 0 C2.93200474 2.85276137 5.64315404 5.65079784 8 9 C4.93795671 8.66896829 3.39949096 8.39949096 1.1875 6.1875 C0 4 0 4 0 0 Z " fill="#A1A1A1" transform="translate(236,369)"/>
<path d="M0 0 C1.60597325 0.45196245 3.20972508 0.91182327 4.8125 1.375 C6.15248047 1.75785156 6.15248047 1.75785156 7.51953125 2.1484375 C10 3 10 3 13 5 C8.18061476 5.23509196 4.53701494 4.45184478 0 3 C0 2.01 0 1.02 0 0 Z " fill="#777777" transform="translate(275,399)"/>
<path d="M0 0 C0.66 0 1.32 0 2 0 C2.96070434 2.88211302 3.10581883 4.69850044 3.0625 7.6875 C3.05347656 8.49574219 3.04445312 9.30398438 3.03515625 10.13671875 C3.02355469 10.75160156 3.01195312 11.36648438 3 12 C0.79680323 7.59360646 -0.10924981 5.02549129 0 0 Z " fill="#7E7E7E" transform="translate(158,337)"/>
<path d="M0 0 C0.99 0 1.98 0 3 0 C3.33 1.98 3.66 3.96 4 6 C2.68 6 1.36 6 0 6 C0 4.02 0 2.04 0 0 Z " fill="#A0A0A0" transform="translate(379,343)"/>
<path d="M0 0 C0.33 0 0.66 0 1 0 C1.02708567 1.60407328 1.04643483 3.2082785 1.0625 4.8125 C1.07410156 5.70582031 1.08570313 6.59914062 1.09765625 7.51953125 C1 10 1 10 0 13 C-0.99 13 -1.98 13 -3 13 C-2.125 9.125 -2.125 9.125 -1 8 C-0.76924918 6.65252916 -0.58846937 5.29622435 -0.4375 3.9375 C-0.2209375 1.9884375 -0.2209375 1.9884375 0 0 Z " fill="#898989" transform="translate(409,204)"/>
<path d="M0 0 C0.66 0 1.32 0 2 0 C2 0.66 2 1.32 2 2 C3.65 2.33 5.3 2.66 7 3 C7 3.66 7 4.32 7 5 C8.65 5 10.3 5 12 5 C12 5.99 12 6.98 12 8 C9.66151045 7.01063903 7.32958731 6.00982111 5 5 C4.21625 4.67 3.4325 4.34 2.625 4 C1 3 1 3 0 0 Z " fill="#363636" transform="translate(395,154)"/>
<path d="M0 0 C0.99 0 1.98 0 3 0 C3 0.99 3 1.98 3 3 C3.66 3 4.32 3 5 3 C5.33 5.31 5.66 7.62 6 10 C4.5 8 4.5 8 3 6 C2.443125 5.29875 1.88625 4.5975 1.3125 3.875 C0 2 0 2 0 0 Z " fill="#535353" transform="translate(218,337)"/>
<path d="M0 0 C0.33 0 0.66 0 1 0 C1.36666667 5.5 1.36666667 5.5 -0.375 7.875 C-2 9 -2 9 -4 9 C-2.94124926 5.59687262 -1.99097846 2.98646769 0 0 Z " fill="#434343" transform="translate(234,204)"/>
<path d="M0 0 C0.66 0 1.32 0 2 0 C1.34 1.98 0.68 3.96 0 6 C-0.99 6 -1.98 6 -3 6 C-3.33 6.66 -3.66 7.32 -4 8 C-4 6.35 -4 4.7 -4 3 C-3.01 3 -2.02 3 -1 3 C-0.67 2.01 -0.34 1.02 0 0 Z " fill="#A9A9A9" transform="translate(237,198)"/>
<path d="M0 0 C-0.99 0 -1.98 0 -3 0 C-3.33 0.99 -3.66 1.98 -4 3 C-7.5625 4.1875 -7.5625 4.1875 -11 5 C-11 4.01 -11 3.02 -11 2 C-9.35 2 -7.7 2 -6 2 C-6 1.34 -6 0.68 -6 0 C-3.50907189 -1.24546405 -2.58919267 -0.7767578 0 0 Z " fill="#B6B6B6" transform="translate(272,179)"/>
<path d="M0 0 C0.99 0 1.98 0 3 0 C3 1.32 3 2.64 3 4 C3.99 4.33 4.98 4.66 6 5 C6.33 6.98 6.66 8.96 7 11 C4.18515955 9.59257978 3.72516601 7.74442408 2.375 4.9375 C1.92898437 4.01839844 1.48296875 3.09929687 1.0234375 2.15234375 C0.51683594 1.08693359 0.51683594 1.08693359 0 0 Z " fill="#404040" transform="translate(224,348)"/>
<path d="M0 0 C0.33 0 0.66 0 1 0 C1 2.64 1 5.28 1 8 C0.01 8.33 -0.98 8.66 -2 9 C-1.125 1.125 -1.125 1.125 0 0 Z " fill="#ACACAC" transform="translate(160,240)"/>
<path d="M0 0 C2.31 0 4.62 0 7 0 C7.33 0.99 7.66 1.98 8 3 C5.125 3.1875 5.125 3.1875 2 3 C1.34 2.01 0.68 1.02 0 0 Z " fill="#8D8D8D" transform="translate(255,431)"/>
<path d="M0 0 C1.485 0.99 1.485 0.99 3 2 C3 2.99 3 3.98 3 5 C3.66 5 4.32 5 5 5 C5.33 6.65 5.66 8.3 6 10 C2.65756352 8.10595266 2.02002851 7.05908409 0.75 3.3125 C0.5025 2.219375 0.255 1.12625 0 0 Z " fill="#A6A6A6" transform="translate(169,363)"/>
<path d="M0 0 C0.99 0.33 1.98 0.66 3 1 C3 2.98 3 4.96 3 7 C2.01 6.67 1.02 6.34 0 6 C0 4.02 0 2.04 0 0 Z " fill="#B5B5B5" transform="translate(211,321)"/>
<path d="M0 0 C4.2742558 1.5830577 6.26531794 4.50568404 9 8 C5.88256767 6.49901406 2.84498177 4.97568178 0 3 C0 2.01 0 1.02 0 0 Z " fill="#666666" transform="translate(404,160)"/>
<path d="M0 0 C4.30840713 1.07710178 7.63576723 2.03947516 11 5 C10.29875 4.855625 9.5975 4.71125 8.875 4.5625 C5.92443859 3.98521625 2.96729849 3.48304859 0 3 C0 2.01 0 1.02 0 0 Z " fill="#929292" transform="translate(264,394)"/>
<path d="M0 0 C3.60654039 2.40436026 3.85452932 3.94679607 5 8 C4.01 7.67 3.02 7.34 2 7 C2 6.34 2 5.68 2 5 C1.34 5 0.68 5 0 5 C0 3.35 0 1.7 0 0 Z " fill="#474747" transform="translate(173,372)"/>
<path d="M0 0 C2.97 0.495 2.97 0.495 6 1 C6 1.66 6 2.32 6 3 C6.66 3 7.32 3 8 3 C7.67 3.99 7.34 4.98 7 6 C5.83054208 5.19152271 4.66449539 4.37810888 3.5 3.5625 C2.8503125 3.11003906 2.200625 2.65757812 1.53125 2.19140625 C1.0259375 1.79824219 0.520625 1.40507812 0 1 C0 0.67 0 0.34 0 0 Z " fill="#A7A7A7" transform="translate(371,337)"/>
<path d="M0 0 C0.99 0.33 1.98 0.66 3 1 C3 2.98 3 4.96 3 7 C2.01 6.34 1.02 5.68 0 5 C-0.1875 2.375 -0.1875 2.375 0 0 Z " fill="#B3B3B3" transform="translate(161,344)"/>
<path d="M0 0 C0.99 0.33 1.98 0.66 3 1 C3 1.66 3 2.32 3 3 C3.66 3 4.32 3 5 3 C5.33 4.65 5.66 6.3 6 8 C5.01 7.67 4.02 7.34 3 7 C1.3125 3.4375 1.3125 3.4375 0 0 Z " fill="#737373" transform="translate(369,189)"/>
<path d="M0 0 C-0.99 0.33 -1.98 0.66 -3 1 C-3 1.66 -3 2.32 -3 3 C-4.98 3.66 -6.96 4.32 -9 5 C-9 3 -9 3 -7.875 1.375 C-5.24112056 -0.55651159 -3.18083044 -0.21205536 0 0 Z " fill="#ABABAB" transform="translate(256,187)"/>
</svg>
