<?xml version="1.0" encoding="UTF-8"?>
<svg version="1.1" xmlns="http://www.w3.org/2000/svg" width="629" height="338" viewBox="0 0 629 338">
<path d="M0 0 C1.36692993 0.00737183 1.36692993 0.00737183 2.76147461 0.01489258 C15.6671245 0.2360934 31.9358664 2.15516572 41.8125 11.3125 C42.09887695 13.47314453 42.09887695 13.47314453 41.80078125 15.9453125 C41.70216797 16.83347656 41.60355469 17.72164062 41.50195312 18.63671875 C41.37755859 19.56097656 41.25316406 20.48523438 41.125 21.4375 C40.96741211 22.83548828 40.96741211 22.83548828 40.80664062 24.26171875 C39.9914198 31.1335802 39.9914198 31.1335802 38.8125 32.3125 C35.97265625 32.66796875 35.97265625 32.66796875 32.8125 32.3125 C30.87109375 30.30078125 30.87109375 30.30078125 29.25 27.625 C28.65574219 26.71105469 28.06148438 25.79710938 27.44921875 24.85546875 C26.90910156 24.01628906 26.36898437 23.17710938 25.8125 22.3125 C21.54698235 16.86211633 16.46064225 14.73168105 9.8125 13.3125 C-4.64158673 11.69475938 -17.02746845 13.95886435 -28.70703125 23.04296875 C-37.32082239 30.92424852 -41.56741433 40.91777733 -42.33007812 52.47265625 C-42.97813725 68.58155445 -40.71783065 79.96135341 -31.1875 93.3125 C-30.57068359 94.20775391 -30.57068359 94.20775391 -29.94140625 95.12109375 C-24.04738551 102.97298989 -14.01920493 107.91765115 -4.56640625 109.84765625 C5.043511 111.06110008 15.00303336 110.22876519 23.2265625 104.82421875 C28.01471208 100.26014513 28.63584069 95.3167778 28.80273438 88.91455078 C28.76814816 86.62491067 28.76814816 86.62491067 27.8125 83.3125 C24.83174142 80.69186218 22.10080746 79.30562597 18.4375 77.8046875 C17.57125 77.31226563 16.705 76.81984375 15.8125 76.3125 C15.375 73.6953125 15.375 73.6953125 15.8125 71.3125 C16.8125 70.3125 16.8125 70.3125 20.50610352 70.19897461 C22.15121292 70.19913376 23.79632731 70.20483012 25.44140625 70.21484375 C26.73775246 70.21696617 26.73775246 70.21696617 28.06028748 70.21913147 C30.83189292 70.22474761 33.6034188 70.23730281 36.375 70.25 C38.2493478 70.25501292 40.12369685 70.25957619 41.99804688 70.26367188 C46.60289544 70.27472228 51.20768421 70.2919977 55.8125 70.3125 C55.99609375 73.17578125 55.99609375 73.17578125 55.8125 76.3125 C52.875 78.5 52.875 78.5 49.8125 80.3125 C48.61088489 83.91734534 48.58232864 87.28539857 48.49609375 91.04296875 C48.4649221 92.16859978 48.4649221 92.16859978 48.43312073 93.31697083 C48.36780074 95.71122184 48.30882208 98.10558139 48.25 100.5 C48.20679807 102.12436013 48.16318324 103.74870933 48.11914062 105.37304688 C48.01213737 109.35275371 47.91082063 113.33256958 47.8125 117.3125 C47.23508057 117.38766846 46.65766113 117.46283691 46.06274414 117.5402832 C43.33296715 117.8979632 40.6039034 118.26071387 37.875 118.625 C36.37223511 118.8247644 36.37223511 118.8247644 34.83911133 119.02856445 C29.54146258 119.74872742 24.2925109 120.56143276 19.04785156 121.59790039 C-2.81836926 125.89137508 -23.78356392 122.82871263 -42.58984375 110.24609375 C-54.18861091 101.61242496 -61.78062052 89.83479539 -64.73828125 75.67578125 C-67.17102013 57.46197106 -65.27953567 39.47872569 -54.1875 24.3125 C-40.58121907 7.8556074 -21.04524635 -0.13618325 0 0 Z " fill="#D5D5D5" transform="translate(176.1875,95.6875)"/>
<path d="M0 0 C0 3.63 0 7.26 0 11 C1.24394531 10.4946875 2.48789062 9.989375 3.76953125 9.46875 C16.02861754 4.62256454 25.58884029 1.41384926 38.359375 6.61328125 C47.29227405 11.30437469 52.7406055 18.40476343 55.96484375 27.81640625 C59.29989813 39.60436343 59.509105 52.59411132 53.8125 63.6875 C48.22586051 72.84248437 41.93994226 76.37871762 32 80 C30.42598832 80.61831344 28.85314559 81.23960782 27.28125 81.86328125 C25.60469084 82.51437219 23.92760634 83.16411199 22.25 83.8125 C21.45819336 84.12703125 20.66638672 84.4415625 19.85058594 84.765625 C12.87092663 87.39284933 7.34083647 87.56637194 0 86 C-0.03012953 90.75169376 -0.01455652 95.50026335 0.04272461 100.25170898 C0.0558351 101.86656475 0.05662515 103.48157076 0.04467773 105.09643555 C0.02962511 107.4238574 0.05939584 109.74713606 0.09765625 112.07421875 C0.08340103 112.79212082 0.06914581 113.51002289 0.05445862 114.24967957 C0.05131261 116.60908567 0.05131261 116.60908567 1 120 C2.71287466 121.61171203 4.40812994 122.75710605 6.4516449 123.91633606 C8 125 8 125 8.5 127.75 C8 130 8 130 7 131 C4.55169574 131.08843793 2.13179401 131.11528752 -0.31640625 131.09765625 C-1.04746078 131.0962413 -1.77851532 131.09482635 -2.53172302 131.09336853 C-4.87535632 131.08775408 -7.21889539 131.07519922 -9.5625 131.0625 C-11.14778508 131.05748686 -12.73307166 131.05292363 -14.31835938 131.04882812 C-18.2122761 131.03777997 -22.10612205 131.02050572 -26 131 C-28.0703125 127.2578125 -28.0703125 127.2578125 -27.4375 124.9375 C-26 123 -26 123 -23.45158386 121.98716736 C-20.87287404 120.30464619 -20.87287404 120.30464619 -20.52727699 118.09674263 C-20.33818089 115.47634439 -20.31341379 112.89510336 -20.3371582 110.26782227 C-20.32679031 109.26919159 -20.31642242 108.27056091 -20.30574036 107.2416687 C-20.27858403 103.93283263 -20.288351 100.62531404 -20.30078125 97.31640625 C-20.2948759 95.02098723 -20.2876307 92.72557129 -20.27909851 90.43016052 C-20.2672023 85.61563084 -20.27395218 80.80156298 -20.29321289 75.98706055 C-20.31609237 69.81143164 -20.2893377 63.63717919 -20.24815083 57.46168613 C-20.22259712 52.7201753 -20.22514635 47.97899479 -20.23604393 43.23744011 C-20.23753308 40.96041554 -20.22981239 38.68336595 -20.21279335 36.4064045 C-20.19287057 33.22394053 -20.21116563 30.04392265 -20.23950195 26.86157227 C-20.22578552 25.91754044 -20.21206909 24.97350861 -20.19793701 24.00086975 C-20.24216997 21.52013932 -20.32601777 19.38822815 -21 17 C-23.83808073 14.44305659 -23.83808073 14.44305659 -27 13 C-28 10.9375 -28 10.9375 -28 9 C-26 6 -26 6 -22.875 5.15625 C-21.59625 4.9396875 -20.3175 4.723125 -19 4.5 C-13.45196708 3.50999413 -8.13235735 2.280214 -2.7578125 0.55078125 C-1 0 -1 0 0 0 Z M0 21 C-0.13474392 22.50685486 -0.20164193 24.01985782 -0.24047852 25.53222656 C-0.26622452 26.49702942 -0.29197052 27.46183228 -0.3184967 28.45587158 C-0.40246069 32.8824004 -0.46853729 37.30875396 -0.51489258 41.73583984 C-0.54653758 44.07172762 -0.59429643 46.40745464 -0.65844727 48.74267578 C-0.74961333 52.10510861 -0.78849191 55.46464354 -0.81640625 58.828125 C-0.85455948 59.8709967 -0.89271271 60.91386841 -0.93202209 61.98834229 C-1.02238235 67.3713751 -1.02238235 67.3713751 1.6892395 71.76257324 C6.45446867 74.86068198 11.29123301 76.58996376 17 76 C24.09811723 74.09603444 29.80056967 72.28511622 34 66 C39.16467514 56.34014464 39.57553837 45.0735775 36.875 34.5625 C34.26343409 27.25011546 29.87045148 21.69488252 23.0546875 17.9140625 C16.29729392 14.90792163 5.56394521 15.43605479 0 21 Z " fill="#D5D5D5" transform="translate(459,131)"/>
<path d="M0 0 C0.00879936 1.03784134 0.00879936 1.03784134 0.01777649 2.09664917 C0.0759819 8.65714868 0.14821453 15.21733201 0.23571491 21.77750969 C0.28020492 25.14917426 0.31950594 28.52072394 0.34643555 31.89257812 C0.38017264 35.7802397 0.43250019 39.66728714 0.48828125 43.5546875 C0.49467117 44.74988007 0.5010611 45.94507263 0.50764465 47.17648315 C0.63116448 54.29299711 1.58819963 60.30895619 4 67 C4.28875 67.99 4.5775 68.98 4.875 70 C6.41659589 72.74061492 8.05385788 73.11615736 11 74 C11.99 74.495 11.99 74.495 13 75 C18.59851345 75.05477998 23.63089713 73.92280692 28.84765625 71.94921875 C29.81840088 71.58530029 30.78914551 71.22138184 31.78930664 70.84643555 C32.88359985 70.42744995 32.88359985 70.42744995 34 70 C34.05068569 62.95250518 34.08572754 55.90505732 34.10986328 48.85742188 C34.11992445 46.45961755 34.13357479 44.0618255 34.15087891 41.6640625 C34.1751218 38.21871918 34.18648198 34.77353801 34.1953125 31.328125 C34.20563507 30.25508118 34.21595764 29.18203735 34.22659302 28.07647705 C34.22674408 27.07574158 34.22689514 26.0750061 34.22705078 25.04394531 C34.23371262 23.72490204 34.23371262 23.72490204 34.24050903 22.37921143 C33.97712724 19.7737335 33.41433563 18.1950055 32 16 C31.154375 15.505 30.30875 15.01 29.4375 14.5 C27 13 27 13 26.0625 11 C26 9 26 9 28 6 C31.08984375 5.15625 31.08984375 5.15625 34.9375 4.5 C41.5076927 3.35853943 47.46923564 1.78111755 54 0 C54.33 24.75 54.66 49.5 55 75 C56.98 75.66 58.96 76.32 61 77 C61.495 80.465 61.495 80.465 62 84 C59.39048764 85.30475618 57.47298715 85.11301572 54.5546875 85.09765625 C52.94013672 85.09282227 52.94013672 85.09282227 51.29296875 85.08789062 C50.16503906 85.07951172 49.03710938 85.07113281 47.875 85.0625 C46.17150391 85.05573242 46.17150391 85.05573242 44.43359375 85.04882812 C41.62234362 85.03701615 38.8111977 85.02054507 36 85 C35.67 83.35 35.34 81.7 35 80 C33.74896484 80.50660156 33.74896484 80.50660156 32.47265625 81.0234375 C20.98362202 85.57693789 9.01888279 89.65159021 -3.46484375 86.34765625 C-9.57050224 83.61710265 -13.60441834 79.25487096 -16.22265625 73.1484375 C-19.80688073 62.5884643 -20.02867783 51.8509928 -20.10546875 40.7734375 C-20.12027245 39.37890443 -20.13524694 37.98437317 -20.15039062 36.58984375 C-20.17342922 34.46087939 -20.18726289 32.33366771 -20.17504883 30.20458984 C-20.16625952 28.10133179 -20.19496751 26.00135346 -20.23046875 23.8984375 C-20.23457764 22.66786621 -20.23868652 21.43729492 -20.24291992 20.16943359 C-20.71590706 16.72047762 -20.71590706 16.72047762 -23.9855957 14.69775391 C-24.98034912 14.13749512 -25.97510254 13.57723633 -27 13 C-28 10.9375 -28 10.9375 -28 9 C-26 6 -26 6 -22.875 5.15625 C-21.59625 4.9396875 -20.3175 4.723125 -19 4.5 C-13.45196708 3.50999413 -8.13235735 2.280214 -2.7578125 0.55078125 C-1 0 -1 0 0 0 Z " fill="#D5D5D5" transform="translate(265,131)"/>
<path d="M0 0 C2.86707282 0.94597744 2.86707282 0.94597744 5.18359375 -0.15625 C5.76753906 -0.54039062 6.35148437 -0.92453125 6.953125 -1.3203125 C9.515625 -2.0703125 9.515625 -2.0703125 11.953125 -2.3203125 C12.943125 -1.6603125 13.933125 -1.0003125 14.953125 -0.3203125 C15.32493591 2.3609314 15.32493591 2.3609314 15.32202148 5.81005859 C15.32890488 7.09834564 15.33578827 8.38663269 15.34288025 9.71395874 C15.3381133 10.74982683 15.3381133 10.74982683 15.33325005 11.80662155 C15.32415909 13.96730348 15.33433986 16.12711392 15.34986877 18.28775024 C15.39002226 24.43075147 15.39117208 30.5736863 15.38891602 36.71679688 C15.3888649 40.47347187 15.40803939 44.22967848 15.43824959 47.98622513 C15.44908131 50.11363131 15.43694009 52.24014554 15.42442322 54.36752319 C15.43445877 55.66211456 15.44449432 56.95670593 15.45483398 58.29052734 C15.45466782 59.43033051 15.45450165 60.57013367 15.45433044 61.74447632 C16.06589864 65.34331636 17.1414645 66.42958714 19.953125 68.6796875 C21.438125 69.6696875 21.438125 69.6696875 22.953125 70.6796875 C23.203125 73.7421875 23.203125 73.7421875 22.953125 76.6796875 C21.953125 77.6796875 21.953125 77.6796875 19.54467773 77.79321289 C18.50255127 77.78797607 17.4604248 77.78273926 16.38671875 77.77734375 C15.26201172 77.77412109 14.13730469 77.77089844 12.97851562 77.76757812 C11.79451172 77.75919922 10.61050781 77.75082031 9.390625 77.7421875 C8.20275391 77.73767578 7.01488281 77.73316406 5.79101562 77.72851562 C2.84500274 77.71668425 -0.10091181 77.70020037 -3.046875 77.6796875 C-3.706875 76.0296875 -4.366875 74.3796875 -5.046875 72.6796875 C-5.87711182 72.99776367 -5.87711182 72.99776367 -6.72412109 73.32226562 C-9.28392206 74.29184684 -11.85250771 75.23576391 -14.421875 76.1796875 C-15.29199219 76.51355469 -16.16210938 76.84742188 -17.05859375 77.19140625 C-26.48718492 80.61363564 -34.81609737 80.8139354 -44.046875 76.6796875 C-53.30277141 71.49638551 -58.50908629 64.59134347 -62.046875 54.6796875 C-65.07963552 43.41240634 -64.09754957 29.61225853 -58.828125 19.29296875 C-52.67737571 8.95629285 -42.38178423 5.25761074 -31.484375 1.3046875 C-30.30423828 0.85480469 -29.12410156 0.40492188 -27.90820312 -0.05859375 C-17.08544388 -4.0436948 -10.89549495 -3.95026239 0 0 Z M-38.109375 15.4296875 C-44.52315246 26.18828194 -45.06863549 37.69226402 -42.046875 49.6796875 C-39.81100727 56.78041028 -35.03448388 61.42025097 -29.046875 65.6796875 C-21.87515385 68.77094662 -16.37366337 67.23364938 -9.3125 64.625 C-8.32540039 64.26164551 -7.33830078 63.89829102 -6.32128906 63.52392578 C-5.57073242 63.24532715 -4.82017578 62.96672852 -4.046875 62.6796875 C-3.84390157 55.93582638 -3.70388602 49.19275296 -3.60742188 42.4465332 C-3.56720895 40.1522885 -3.51262825 37.85824858 -3.44335938 35.56469727 C-3.34621248 32.26527448 -3.30092697 28.96856137 -3.265625 25.66796875 C-3.22433472 24.64383377 -3.18304443 23.61969879 -3.14050293 22.56452942 C-3.02683077 17.22797423 -3.02683077 17.22797423 -5.78881836 12.93490601 C-7.8317494 11.63834773 -9.82047505 10.61982337 -12.046875 9.6796875 C-12.913125 9.2465625 -13.779375 8.8134375 -14.671875 8.3671875 C-22.52122703 6.09500665 -32.59501863 9.41096927 -38.109375 15.4296875 Z " fill="#D5D5D5" transform="translate(398.046875,138.3203125)"/>
<path d="M0 0 C5.76713325 4.20586513 9.68361372 9.49124386 11.12109375 16.546875 C12.000417 25.59657677 11.10275134 32.91545874 5.55859375 40.234375 C-0.17735886 46.34898463 -6.55864551 48.83725582 -14.87890625 49.171875 C-23.22369857 48.83626922 -29.61005793 46.35258968 -35.31640625 40.171875 C-41.19428257 32.36245858 -42.01080826 25.23811222 -40.87890625 15.546875 C-38.30926987 7.01568222 -33.20632433 2.19631464 -25.81640625 -2.328125 C-17.42133129 -5.4668242 -7.63467559 -4.46296307 0 0 Z " fill="#F59E0B" transform="translate(578.87890625,136.453125)"/>
<path d="M0 0 C6.53168981 3.79156628 11.08818704 8.645719 13.625 15.8125 C15.50570605 23.41709403 14.87979243 31.27890792 10.984375 38.15234375 C6.85683552 43.76247643 1.34868019 48.12618749 -5.375 50 C-14.51552295 50.94843299 -22.09177749 50.26166191 -29.375 44.38671875 C-35.59317475 38.54422539 -38.06230241 32.69046379 -38.625 24.25 C-38.46133034 16.33434013 -35.66720122 10.45484113 -30.28125 4.7265625 C-21.99454088 -2.7790224 -10.24501444 -4.68973011 0 0 Z " fill="#06B6D4" transform="translate(75.375,135)"/>
</svg>
