<?xml version="1.0" encoding="UTF-8"?>
<svg version="1.1" xmlns="http://www.w3.org/2000/svg" width="629" height="338" viewBox="0 0 629 338">
<path d="M0 0 C0.30071865 7.55137932 -0.57374434 14.58856436 -2 22 C-4.37890625 22.5859375 -4.37890625 22.5859375 -7 23 C-10.13028304 20.77850881 -11.88188218 17.67781735 -13.9375 14.5 C-17.94005713 8.44153883 -21.84792639 5.4392169 -28.8671875 3.54296875 C-42.2805461 1.21820959 -54.85929654 2.7152157 -66.375 10.3125 C-76.23801721 17.79261225 -81.04264395 26.84019818 -83.3125 39.0625 C-85.50084455 55.24362457 -82.50105777 69.45372733 -72.6875 82.6875 C-65.13959825 91.87132037 -57.01779011 97.26281214 -45.25 99.8125 C-44.1775 99.874375 -43.105 99.93625 -42 100 C-40.783125 100.0825 -39.56625 100.165 -38.3125 100.25 C-29.32521842 100.05803865 -21.9457894 97.89812023 -15.42578125 91.62109375 C-12.49006912 88.28322927 -12.80384191 85.41023401 -12.75 81.0625 C-12.72421875 79.81597656 -12.6984375 78.56945312 -12.671875 77.28515625 C-12.72322711 74.08492613 -12.72322711 74.08492613 -14.26171875 72.1796875 C-16.76197988 70.48288107 -19.3924504 69.35073363 -22.16015625 68.16015625 C-24.45322514 66.71420835 -25.14223371 65.55391431 -26 63 C-25.505 61.515 -25.505 61.515 -25 60 C-19.46411467 59.97535225 -13.928261 59.95716504 -8.39233398 59.94506836 C-6.5075627 59.94002756 -4.62279535 59.93319502 -2.73803711 59.92456055 C-0.03498364 59.91248383 2.66801831 59.90676932 5.37109375 59.90234375 C6.21900986 59.89718246 7.06692596 59.89202118 7.9405365 59.88670349 C9.96071068 59.88650805 11.98077934 59.93793789 14 60 C15 61 15 61 15.5 63.25 C15.335 64.1575 15.17 65.065 15 66 C13.4516449 67.06828308 13.4516449 67.06828308 11.52514648 68.14916992 C8.26911828 70.37877237 8.0601916 70.73706997 7.11352539 74.87231445 C7.07303385 76.36876501 7.06964297 77.8665451 7.09765625 79.36328125 C7.08536484 80.15526413 7.07307343 80.94724701 7.06040955 81.76322937 C7.02873989 84.28060219 7.04493575 86.79503714 7.0625 89.3125 C7.04938727 91.0241157 7.03314554 92.73571048 7.01367188 94.44726562 C6.97287026 98.63213528 6.97497443 102.8150272 7 107 C6.42258057 107.07516846 5.84516113 107.15033691 5.25024414 107.2277832 C2.5204673 107.58546318 -0.20859285 107.94824322 -2.9375 108.3125 C-3.94006836 108.44567627 -4.94263672 108.57885254 -5.97558594 108.71606445 C-11.25675596 109.43358731 -16.48709098 110.24478351 -21.71386719 111.28540039 C-41.11294788 115.11636992 -61.93195185 114.08983976 -78.98046875 103.07421875 C-81.71321714 101.11593347 -84.36424103 99.08628479 -87 97 C-87.58523438 96.57976562 -88.17046875 96.15953125 -88.7734375 95.7265625 C-98.94262151 88.1400284 -104.44031482 75.02142547 -106.33984375 62.81640625 C-106.62721689 60.54497746 -106.83407938 58.28338381 -107 56 C-107.05414063 55.33742188 -107.10828125 54.67484375 -107.1640625 53.9921875 C-107.60767835 43.38573577 -105.28375668 31.23304921 -100 22 C-99.59136719 21.278125 -99.18273437 20.55625 -98.76171875 19.8125 C-89.67864724 5.07489664 -76.35030145 -3.6401566 -59.9375 -8.30859375 C-39.15160346 -13.20101887 -18.66359108 -9.78765911 0 0 Z " fill="#D5D5D5" transform="translate(361,107)"/>
<path d="M0 0 C5.96161587 3.93691614 9.94125667 9.60521637 11.62109375 16.578125 C12.94718634 25.05418075 11.15701718 32.19652466 6.375 39.25 C1.90355568 44.83651771 -3.99361757 47.88123894 -11 49 C-18.95168738 49.62366176 -26.15684358 47.88429239 -32.375 42.8125 C-37.46816715 37.95598506 -40.5046217 31.98236251 -41.203125 24.95703125 C-41.39911915 15.99029902 -39.16139948 9.31281258 -32.96875 2.7265625 C-23.18408627 -5.85443228 -11.14175366 -5.78002238 0 0 Z " fill="#06B6D4" transform="translate(227,136)"/>
<path d="M0 0 C6.35034444 5.85975989 9.06226017 12.35133134 9.4453125 20.9296875 C9.13824912 29.41850417 6.25355588 35.56601534 0.1328125 41.4296875 C-5.40085976 45.83998269 -11.79403148 48.17870096 -18.94921875 47.8359375 C-27.30775828 46.51061952 -34.0717593 43.38852007 -39.1171875 36.4921875 C-43.6264503 29.63435033 -44.0835193 22.52170738 -43.1171875 14.4921875 C-41.06940922 6.47071281 -35.99736681 0.82029509 -28.9921875 -3.3828125 C-19.11556379 -7.2475783 -8.73054858 -6.21769696 0 0 Z " fill="#F59E0B" transform="translate(435.1171875,137.5078125)"/>
</svg>
