<?xml version="1.0" encoding="UTF-8"?>
<svg version="1.1" xmlns="http://www.w3.org/2000/svg" viewBox="0 0 510 274">
<path d="M0 0 C15.40114009 -0.31812805 29.92723762 1.81301426 43.15234375 10.12109375 C42.84619518 13.24675037 42.53134659 16.37146998 42.21484375 19.49609375 C42.12783203 20.38554688 42.04082031 21.275 41.95117188 22.19140625 C41.86416016 23.0421875 41.77714844 23.89296875 41.6875 24.76953125 C41.60894775 25.55505371 41.53039551 26.34057617 41.44946289 27.14990234 C41.15234375 29.12109375 41.15234375 29.12109375 40.15234375 31.12109375 C37.08984375 31.80859375 37.08984375 31.80859375 33.15234375 31.12109375 C31.1132763 28.51288 29.55249227 25.76057716 27.8984375 22.89453125 C24.70274149 17.81859351 21.06507263 15.81363352 15.52734375 13.80859375 C4.03889318 11.52421072 -6.74738256 12.96931664 -16.8671875 18.88671875 C-26.68837267 25.56565056 -31.11216032 33.41951001 -33.41015625 44.94140625 C-35.57589506 60.68168653 -32.4004 73.40286182 -23.25390625 86.3828125 C-17.72406073 93.22990895 -10.35108105 97.85833551 -1.84765625 100.12109375 C0.94989461 100.41390572 3.71607981 100.45535276 6.52734375 100.43359375 C7.28176758 100.4279541 8.03619141 100.42231445 8.81347656 100.41650391 C15.83472452 100.26280949 20.35914693 99.26056366 26.08984375 94.87109375 C29.876528 89.91536604 29.06848276 82.1133429 29.15234375 76.12109375 C28.22035156 75.81816406 27.28835937 75.51523438 26.328125 75.203125 C23.18806069 74.13326299 20.77949017 73.14774956 18.15234375 71.12109375 C17.21484375 68.55859375 17.21484375 68.55859375 17.15234375 66.12109375 C19.70668126 63.56675624 21.35968258 63.88378582 24.84205627 63.86885071 C26.00305092 63.87962898 26.00305092 63.87962898 27.1875 63.890625 C28.37828407 63.89131233 28.37828407 63.89131233 29.59312439 63.89201355 C31.27181492 63.8950361 32.95050265 63.9029225 34.62915039 63.9152832 C37.20794533 63.9335449 39.78638152 63.93579288 42.36523438 63.93554688 C43.99349271 63.94046179 45.62174859 63.94628999 47.25 63.953125 C48.41403099 63.95479424 48.41403099 63.95479424 49.60157776 63.95649719 C55.03629368 64.00504368 55.03629368 64.00504368 56.15234375 65.12109375 C56.58984375 67.93359375 56.58984375 67.93359375 56.15234375 71.12109375 C55.16991699 71.68989258 54.18749023 72.25869141 53.17529297 72.84472656 C49.81391091 74.86310473 49.81391091 74.86310473 49.37939453 78.60449219 C49.33865942 79.97925503 49.32982022 81.3552182 49.34765625 82.73046875 C49.33394989 83.45727844 49.32024353 84.18408813 49.30612183 84.93292236 C49.26883574 87.24627664 49.27253475 89.55748179 49.27734375 91.87109375 C49.25921557 93.44274186 49.23841248 95.01436156 49.21484375 96.5859375 C49.16300749 100.43134944 49.14791171 104.27535161 49.15234375 108.12109375 C48.56332275 108.20149902 47.97430176 108.2819043 47.36743164 108.36474609 C44.6493589 108.7380185 41.93211387 109.11702454 39.21484375 109.49609375 C38.28865234 109.62242187 37.36246094 109.74875 36.40820312 109.87890625 C31.23234403 110.60534261 26.16621428 111.51123581 21.07543945 112.69287109 C2.08250744 116.92209577 -17.4267297 113.1737044 -33.91796875 103.171875 C-46.24886134 94.54025019 -53.10460743 83.55624839 -56.31640625 68.99609375 C-56.61162098 67.02799555 -56.75879591 65.10934393 -56.84765625 63.12109375 C-56.925 61.81978516 -56.925 61.81978516 -57.00390625 60.4921875 C-57.51942166 44.36085114 -53.3952623 29.7260402 -42.22265625 17.80859375 C-30.27724221 6.69447933 -16.22334524 0.68988162 0 0 Z " fill="#D5D5D5" transform="translate(125.84765625,70.87890625)"/>
<path d="M0 0 C0 2.97 0 5.94 0 9 C1.01578125 8.566875 2.0315625 8.13375 3.078125 7.6875 C13.6665266 3.33668588 23.64962121 0.44706577 34.84375 4.84765625 C43.69275127 9.57674207 48.44647379 16.79890534 52 26 C55.23081958 37.95205033 53.50380481 50.46961472 47.8203125 61.234375 C42.04864611 70.31877299 30.8215348 73.19378344 21.25 76.875 C20.06241089 77.34111694 20.06241089 77.34111694 18.85083008 77.81665039 C12.3233012 80.2290722 6.82461347 80.86519359 0 79 C0.06888572 83.07567513 0.156854 87.15044801 0.26245117 91.2253418 C0.29568549 92.61129377 0.32372226 93.99738061 0.34643555 95.38354492 C0.38000617 97.37706843 0.43388 99.37021741 0.48828125 101.36328125 C0.51446533 102.56251221 0.54064941 103.76174316 0.56762695 104.99731445 C0.74950019 107.96502317 0.74950019 107.96502317 2.34448242 109.78979492 C3.86624347 110.90222222 5.43157942 111.95438628 7 113 C7.25 116.0625 7.25 116.0625 7 119 C6 120 6 120 2.94897461 120.11352539 C1.60008729 120.11336634 0.25119386 120.10767612 -1.09765625 120.09765625 C-2.16094398 120.09553383 -2.16094398 120.09553383 -3.24571228 120.09336853 C-5.51801712 120.08775443 -7.79022475 120.07519963 -10.0625 120.0625 C-11.59960796 120.05748681 -13.13671745 120.05292359 -14.67382812 120.04882812 C-18.44925642 120.03778042 -22.22461171 120.02050641 -26 120 C-27.15625 115.28125 -27.15625 115.28125 -25.75 112.75 C-24 111 -24 111 -21 110 C-19.35626352 106.71252703 -19.861905 103.0641399 -19.87060547 99.45117188 C-19.86885315 98.56651749 -19.86710083 97.6818631 -19.86529541 96.770401 C-19.86088226 93.83649757 -19.86381301 90.90265408 -19.8671875 87.96875 C-19.86651431 85.93615711 -19.86554415 83.90356429 -19.86428833 81.87097168 C-19.86281209 77.60716995 -19.86496357 73.34338914 -19.86962891 69.07958984 C-19.87532614 63.60484909 -19.87204675 58.13015735 -19.86605644 52.6554184 C-19.86244886 48.4570885 -19.86359033 44.2587703 -19.86618423 40.06044006 C-19.86685296 38.04134617 -19.86602698 36.02225123 -19.86370468 34.00315857 C-19.86117495 31.18501968 -19.86502332 28.36696101 -19.87060547 25.54882812 C-19.86858124 24.70824356 -19.86655701 23.867659 -19.86447144 23.00160217 C-19.77262734 18.86829764 -19.77262734 18.86829764 -21 15 C-21.825 14.566875 -22.65 14.13375 -23.5 13.6875 C-26 12 -26 12 -26.875 9.4375 C-27 7 -27 7 -26 5 C-23.59423559 4.40671655 -21.24901144 3.92032709 -18.8125 3.5 C-12.5115867 2.38120369 -6.39378589 -0.37610505 0 0 Z M5.26953125 17.00390625 C4.28186768 17.37459229 3.2942041 17.74527832 2.27661133 18.12719727 C1.52532959 18.41522217 0.77404785 18.70324707 0 19 C-0.19796271 25.17453291 -0.34302108 31.34721535 -0.43945312 37.52416992 C-0.47965263 39.62443212 -0.53422399 41.72447087 -0.60351562 43.82397461 C-0.70072891 46.84544931 -0.74595912 49.86396423 -0.78125 52.88671875 C-0.82254028 53.82335861 -0.86383057 54.75999847 -0.90637207 55.72502136 C-0.90819343 58.37917994 -0.82496942 60.47512615 0 63 C3.80628364 66.76128868 8.64618519 68.89103498 14 69 C21.17059345 67.14505884 27.09085869 64.38493081 31 58 C34.83483829 49.75509768 34.9102456 39.52956776 32 31 C28.86918849 23.97877025 25.17973588 19.04082931 18 16 C13.01671727 14.40158856 10.01727296 15.20546592 5.26953125 17.00390625 Z " fill="#D6D6D6" transform="translate(389,104)"/>
<path d="M0 0 C0.89847656 0.15210937 1.79695313 0.30421875 2.72265625 0.4609375 C3.38265625 -0.1990625 4.04265625 -0.8590625 4.72265625 -1.5390625 C9.92442684 -2.09244235 9.92442684 -2.09244235 12.39299011 -0.38108826 C14.2675214 2.21575529 14.0810887 4.06067109 14.05981445 7.24584961 C14.06045647 9.02801125 14.06045647 9.02801125 14.06111145 10.84617615 C14.04867905 12.13057083 14.03624664 13.41496552 14.0234375 14.73828125 C14.02912255 16.75191996 14.03484204 18.76555928 14.04261303 20.77919102 C14.0574765 25.74930182 14.04099347 30.71920735 14.00756836 35.68920898 C13.99000204 38.47769084 13.98829053 41.2653535 14.00346375 44.05384827 C14.01659472 46.6814777 14.00527567 49.30936362 13.96736145 51.93675232 C13.71080919 57.90384908 13.71080919 57.90384908 16.09188843 63.06277466 C17.91086079 64.2505265 17.91086079 64.2505265 20.72265625 65.4609375 C21.09765625 68.7109375 21.09765625 68.7109375 20.72265625 71.4609375 C18.11314389 72.76569368 16.1956434 72.57395322 13.27734375 72.55859375 C11.66279297 72.55375977 11.66279297 72.55375977 10.015625 72.54882812 C8.88769531 72.54044922 7.75976562 72.53207031 6.59765625 72.5234375 C4.89416016 72.51666992 4.89416016 72.51666992 3.15625 72.50976562 C0.34499987 72.49795365 -2.46614605 72.48148257 -5.27734375 72.4609375 C-5.93734375 71.1409375 -6.59734375 69.8209375 -7.27734375 68.4609375 C-8.40011719 68.8940625 -9.52289063 69.3271875 -10.6796875 69.7734375 C-12.19112063 70.33670451 -13.70285589 70.89916126 -15.21484375 71.4609375 C-15.95025391 71.74710937 -16.68566406 72.03328125 -17.44335938 72.328125 C-26.37420716 75.60406917 -34.52264484 75.19476709 -43.27734375 71.4609375 C-50.71562379 67.3388356 -55.3300492 61.09735309 -58.58984375 53.3359375 C-61.84031497 39.74305786 -61.22305386 27.12937428 -54.3984375 14.91796875 C-48.34793297 7.9091891 -39.7639476 4.71258102 -31.27734375 1.5859375 C-30.24867188 1.18375 -29.22 0.7815625 -28.16015625 0.3671875 C-17.73177451 -3.53350491 -10.64087401 -2.9122392 0 0 Z M-33.27734375 13.4609375 C-39.96986708 20.68700688 -40.81874796 28.50238684 -40.55078125 38.09765625 C-39.80371388 47.28658489 -36.25468159 53.37459064 -29.27734375 59.4609375 C-25.05412972 62.22930418 -21.59099794 62.78726955 -16.65234375 61.8359375 C-12.92532707 60.87993694 -9.70054549 59.19505559 -6.27734375 57.4609375 C-6.07935733 51.42882442 -5.93431298 45.39860649 -5.83789062 39.36401367 C-5.79769485 37.31224627 -5.74312608 35.26070752 -5.67382812 33.2097168 C-5.57659623 30.25772777 -5.53138158 27.3087684 -5.49609375 24.35546875 C-5.45480347 23.44070267 -5.41351318 22.52593658 -5.37097168 21.58345032 C-5.3691415 18.9770782 -5.45402771 16.93621557 -6.27734375 14.4609375 C-9.53316259 11.27276528 -13.27654433 9.80736807 -17.52734375 8.3359375 C-23.28229615 8.52776925 -28.32263262 10.56777754 -33.27734375 13.4609375 Z " fill="#DADADA" transform="translate(334.27734375,109.5390625)"/>
<path d="M0 0 C0.00879936 0.94388077 0.00879936 0.94388077 0.01777649 1.90682983 C0.08202763 8.4940004 0.16652714 15.08069665 0.26245117 21.66748047 C0.29557451 24.12119264 0.32364506 26.5749787 0.34643555 29.02880859 C0.38021329 32.56900328 0.43254167 36.10852849 0.48828125 39.6484375 C0.49467117 40.73426117 0.5010611 41.82008484 0.50764465 42.93881226 C0.65975951 50.93352929 1.37982889 58.53004366 6.3125 65.0625 C9.44365913 67.31984728 11.17244644 67.69673645 15 68 C18.39752823 67.27405823 18.39752823 67.27405823 21.75 66.0625 C27.87457627 64 27.87457627 64 30 64 C29.88258093 57.34296425 29.75774651 50.68609757 29.62768555 44.02929688 C29.5842977 41.76337866 29.54262551 39.49742693 29.50268555 37.23144531 C29.44507615 33.97971482 29.38135498 30.72815364 29.31640625 27.4765625 C29.29969376 26.45881744 29.28298126 25.44107239 29.26576233 24.39248657 C29.2358445 22.98125015 29.2358445 22.98125015 29.20532227 21.54150391 C29.18200584 20.29574081 29.18200584 20.29574081 29.15821838 19.02481079 C29.12234803 16.93121564 29.12234803 16.93121564 28 15 C27.154375 14.608125 26.30875 14.21625 25.4375 13.8125 C24.633125 13.214375 23.82875 12.61625 23 12 C22.84765625 8.38671875 22.84765625 8.38671875 23 5 C24.51980469 4.70996094 24.51980469 4.70996094 26.0703125 4.4140625 C27.42191568 4.15125077 28.77347592 3.88821817 30.125 3.625 C30.79015625 3.49867187 31.4553125 3.37234375 32.140625 3.2421875 C35.24398475 2.63368559 38.18901773 1.9345172 41.1796875 0.8984375 C43.99685492 0.00100189 46.07425843 -0.07069979 49 0 C48.99920441 0.81797058 48.99840881 1.63594116 48.99758911 2.47869873 C48.9953809 10.1890876 49.02177775 17.89859738 49.0802784 25.60874557 C49.10934631 29.57265666 49.12736609 33.53597576 49.12011719 37.5 C49.11352759 41.32596364 49.13598505 45.15075711 49.17855453 48.97647858 C49.1896928 50.43565963 49.19037919 51.89495926 49.18042374 53.35414886 C49.16825618 55.39983018 49.19330711 57.44193651 49.22705078 59.48730469 C49.231492 60.65090515 49.23593323 61.81450562 49.24050903 63.0133667 C49.73990877 66.29447028 49.73990877 66.29447028 52.98580933 68.21173096 C53.98049225 68.80185974 54.97517517 69.39198853 56 70 C57 73.125 57 73.125 57 76 C55 78 55 78 52.56982422 78.22705078 C51.5748291 78.21657715 50.57983398 78.20610352 49.5546875 78.1953125 C47.94013672 78.18564453 47.94013672 78.18564453 46.29296875 78.17578125 C45.16503906 78.15902344 44.03710938 78.14226562 42.875 78.125 C41.17150391 78.11146484 41.17150391 78.11146484 39.43359375 78.09765625 C36.62218701 78.07403098 33.81119702 78.04109013 31 78 C30.67 76.68 30.34 75.36 30 74 C29.07380859 74.39832031 29.07380859 74.39832031 28.12890625 74.8046875 C17.88855458 79.07539733 6.71421055 82.37015173 -4.3984375 79.34765625 C-10.19256395 76.76138908 -14.45910165 72.52721263 -17 66.7109375 C-19.85659183 58.05876032 -20.04221115 49.0684266 -20.140625 40.03125 C-20.15026779 39.33747253 -20.15991058 38.64369507 -20.16984558 37.92889404 C-20.24985777 32.14257853 -20.24985777 32.14257853 -20.25048828 29.29394531 C-20.25380925 27.16378191 -20.28818982 25.03599998 -20.328125 22.90625 C-20.34214355 21.02389648 -20.34214355 21.02389648 -20.35644531 19.10351562 C-20.66583868 15.80559883 -20.66583868 15.80559883 -23.49121094 14.29882812 C-24.31911133 13.87021484 -25.14701172 13.44160156 -26 13 C-26.8125 9.3125 -26.8125 9.3125 -27 6 C-22.13085971 4.60342488 -17.25927943 3.21792815 -12.375 1.875 C-11.10398438 1.52179688 -9.83296875 1.16859375 -8.5234375 0.8046875 C-5.47618638 0.1087521 -3.08693966 -0.06809912 0 0 Z " fill="#D5D5D5" transform="translate(212,104)"/>
<path d="M0 0 C3.85432136 1.78950635 5.49773376 3.26334285 7.875 6.75 C9.23466774 10.67792903 9.75420128 13.89288218 9 18 C6.46579412 22.6314797 4.06902315 26.31032562 -1 28 C-5.7237181 28.54885106 -9.10134882 28.46596728 -13.375 26.25 C-17.7562447 22.4946474 -19.53744455 20.05143264 -20.05859375 14.0859375 C-19.91745859 9.0615259 -17.66279969 5.77878964 -14.5 2.0625 C-10.19639463 -1.18672205 -5.11350356 -0.81420369 0 0 Z " fill="#F59E0B" transform="translate(471,122)"/>
<path d="M0 0 C4.40608743 2.16298837 7.1987497 4.39680479 9 9 C9.68426057 14.04325384 9.5739862 17.83076884 7.3125 22.4375 C4.28115306 25.79656012 2.25860352 27.69355631 -2.33203125 28.31640625 C-8.04951809 28.58213652 -11.60250453 27.96847152 -16 24 C-19.38570467 20.16286804 -19.51291172 16.36598538 -19.3515625 11.4375 C-18.67904883 6.77473854 -16.30117669 4.14809708 -12.875 1.125 C-8.55651358 -0.56484251 -4.5732948 -0.65960983 0 0 Z " fill="#06B6D4" transform="translate(45,122)"/>
<path d="M0 0 C3 0.4375 3 0.4375 4.66621399 1.59931946 C6.55816762 4.20674847 6.36071946 6.08310646 6.34057617 9.28588867 C6.34034958 10.4869072 6.34012299 11.68792572 6.33988953 12.92533875 C6.32440567 14.22228165 6.30892181 15.51922455 6.29296875 16.85546875 C6.28737234 18.19639105 6.28310245 19.53731949 6.28010559 20.87825012 C6.26866018 24.40474431 6.23919618 27.93086684 6.20599365 31.45721436 C6.17528589 35.05671155 6.16159878 38.6562689 6.14648438 42.25585938 C6.11432579 49.31655814 6.06313345 56.37700479 6 63.4375 C5.34 63.4375 4.68 63.4375 4 63.4375 C3.67 43.6375 3.34 23.8375 3 3.4375 C-1.455 3.9325 -1.455 3.9325 -6 4.4375 C-4.25840822 1.34133684 -3.60277923 0.5254053 0 0 Z " fill="#787879" transform="translate(342,107.5625)"/>
<path d="M0 0 C0.77399643 0.00718552 1.54799286 0.01437103 2.34544373 0.02177429 C3.5362278 0.02246162 3.5362278 0.02246162 4.75106812 0.02316284 C6.42975865 0.02618539 8.10844637 0.03407179 9.78709412 0.0464325 C12.36588906 0.06469419 14.94432524 0.06694217 17.5231781 0.06669617 C19.15143643 0.07161108 20.77969232 0.07743929 22.40794373 0.08427429 C23.57197472 0.08594353 23.57197472 0.08594353 24.75952148 0.08764648 C30.1942374 0.13619297 30.1942374 0.13619297 31.31028748 1.25224304 C31.74778748 4.06474304 31.74778748 4.06474304 31.31028748 7.25224304 C28.31028748 9.62724304 28.31028748 9.62724304 25.31028748 11.25224304 C24.81528748 9.76724304 24.81528748 9.76724304 24.31028748 8.25224304 C26.29028748 7.59224304 28.27028748 6.93224304 30.31028748 6.25224304 C30.31028748 4.93224304 30.31028748 3.61224304 30.31028748 2.25224304 C18.43028748 2.25224304 6.55028748 2.25224304 -5.68971252 2.25224304 C-3.50245595 6.62675619 -2.78357648 7.05507506 1.43528748 9.00224304 C2.3453656 9.43021179 3.25544373 9.85818054 4.19309998 10.29911804 C4.89177185 10.61364929 5.59044373 10.92818054 6.31028748 11.25224304 C7.23046685 25.44686188 7.23046685 25.44686188 4.97434998 29.87333679 C3.31028748 31.75224304 3.31028748 31.75224304 0.31028748 34.25224304 C-0.34971252 33.92224304 -1.00971252 33.59224304 -1.68971252 33.25224304 C-0.48315002 32.23130554 -0.48315002 32.23130554 0.74778748 31.18974304 C5.06383614 26.17873739 4.22227826 18.54090147 4.31028748 12.25224304 C3.37829529 11.94931335 2.4463031 11.64638367 1.48606873 11.33427429 C-1.65399559 10.26441228 -4.0625661 9.27889885 -6.68971252 7.25224304 C-7.62721252 4.68974304 -7.62721252 4.68974304 -7.68971252 2.25224304 C-5.13537501 -0.30209447 -3.48237369 0.01493511 0 0 Z " fill="#787879" transform="translate(150.68971252441406,134.7477569580078)"/>
<path d="M0 0 C6.05304276 3.31476151 6.05304276 3.31476151 7.5859375 4.84765625 C7.68398601 6.25440845 7.71391936 7.66600761 7.71533203 9.07617188 C7.71848419 9.97380249 7.72163635 10.87143311 7.72488403 11.79626465 C7.7228598 12.77228638 7.72083557 13.74830811 7.71875 14.75390625 C7.72018509 16.24645935 7.72018509 16.24645935 7.72164917 17.76916504 C7.7223311 19.87752343 7.72047594 21.9858839 7.71630859 24.09423828 C7.71096053 27.33370652 7.71625317 30.5730361 7.72265625 33.8125 C7.72199547 35.85546906 7.72071431 37.89843803 7.71875 39.94140625 C7.72077423 40.91742798 7.72279846 41.89344971 7.72488403 42.89904785 C7.72173187 43.79667847 7.71857971 44.69430908 7.71533203 45.61914062 C7.71453644 46.41332397 7.71374084 47.20750732 7.71292114 48.02575684 C7.5859375 49.84765625 7.5859375 49.84765625 6.5859375 50.84765625 C4.91976635 50.88829457 3.25205655 50.89037725 1.5859375 50.84765625 C2.5759375 50.18765625 3.5659375 49.52765625 4.5859375 48.84765625 C5.02203909 46.91593453 5.02203909 46.91593453 4.92651367 44.67333984 C4.92628708 43.81259857 4.92606049 42.9518573 4.92582703 42.06503296 C4.91034317 41.13478302 4.89485931 40.20453308 4.87890625 39.24609375 C4.87253899 37.8186937 4.87253899 37.8186937 4.86604309 36.36245728 C4.84921646 33.31557211 4.81155704 30.26934234 4.7734375 27.22265625 C4.75839581 25.16016579 4.74470651 23.09766498 4.73242188 21.03515625 C4.69929989 15.97240275 4.64749034 10.91014071 4.5859375 5.84765625 C3.03350005 4.99666676 1.4717141 4.16271878 -0.09375 3.3359375 C-1.39675049 2.63658081 -1.39675049 2.63658081 -2.72607422 1.9230957 C-6.96800436 0.22593837 -10.00549663 0.92327954 -14.4140625 1.84765625 C-14.4140625 1.18765625 -14.4140625 0.52765625 -14.4140625 -0.15234375 C-9.29090747 -2.79154483 -5.19146679 -2.47812735 0 0 Z " fill="#8D8D8E" transform="translate(322.4140625,118.15234375)"/>
<path d="M0 0 C0.66 0 1.32 0 2 0 C2.21914062 0.68964844 2.43828125 1.37929687 2.6640625 2.08984375 C6.75547389 14.21439215 12.95686066 22.33391902 23.42578125 29.66796875 C23.94527344 30.10753906 24.46476562 30.54710937 25 31 C25 31.66 25 32.32 25 33 C25.71542969 33.12246094 26.43085937 33.24492187 27.16796875 33.37109375 C30.05112713 34.01135375 32.58592473 34.93551556 35.3125 36.0625 C36.63701172 36.60583984 36.63701172 36.60583984 37.98828125 37.16015625 C38.65214844 37.43730469 39.31601563 37.71445313 40 38 C40 38.66 40 39.32 40 40 C26.49562189 38.38270921 15.53219242 28.66181801 7.125 18.5625 C2.97713886 12.97318357 0 7.02251802 0 0 Z " fill="#89898A" transform="translate(71,142)"/>
<path d="M0 0 C2.64 1.32 5.28 2.64 8 4 C7.69222765 7.1255328 7.37900548 10.25035018 7.0625 13.375 C6.97548828 14.26445313 6.88847656 15.15390625 6.79882812 16.0703125 C6.71181641 16.92109375 6.62480469 17.771875 6.53515625 18.6484375 C6.456604 19.43395996 6.37805176 20.21948242 6.29711914 21.02880859 C6 23 6 23 5 25 C1.9375 25.6875 1.9375 25.6875 -2 25 C-4.03807309 22.39305816 -5.59343294 19.64899236 -7.234375 16.77734375 C-10.17318719 12.15456617 -13.78618449 9.7379385 -19 8 C-19 7.34 -19 6.68 -19 6 C-13.60818642 6.63433101 -9.75642068 9.06793725 -6.125 13.0625 C-5 15 -5 15 -5 18 C-4.34 18 -3.68 18 -3 18 C-2.773125 18.639375 -2.54625 19.27875 -2.3125 19.9375 C-1.879375 20.618125 -1.44625 21.29875 -1 22 C0.65 22.33 2.3 22.66 4 23 C4.33 17.06 4.66 11.12 5 5 C2.525 3.515 2.525 3.515 0 2 C0 1.34 0 0.68 0 0 Z " fill="#909090" transform="translate(161,77)"/>
<path d="M0 0 C0.99 0.495 0.99 0.495 2 1 C2.53332589 3.21242333 2.97696223 5.4467815 3.375 7.6875 C4.45753437 13.14458352 5.54008443 16.7049324 9 21 C9 21.66 9 22.32 9 23 C9.66 23 10.32 23 11 23 C11 23.66 11 24.32 11 25 C17.43013467 26.73955334 23.34949576 27.24991456 30 27 C30 27.66 30 28.32 30 29 C20.98899185 29.49450654 14.29818726 29.56031186 7.2890625 23.52734375 C1.91052009 17.97826219 -0.14696318 11.00943509 -0.1875 3.375 C-0.0946875 1.704375 -0.0946875 1.704375 0 0 Z " fill="#8A8A8A" transform="translate(193,155)"/>
<path d="M0 0 C1.98 0 3.96 0 6 0 C6 0.66 6 1.32 6 2 C4.68 2 3.36 2 2 2 C2.06899498 6.05736219 2.1570166 10.1138269 2.26245117 14.17041016 C2.29564193 15.54952667 2.32369217 16.92877711 2.34643555 18.30810547 C2.38008642 20.29422306 2.43394729 22.27996559 2.48828125 24.265625 C2.51446533 25.45961914 2.54064941 26.65361328 2.56762695 27.88378906 C3.02590002 31.18666731 3.7594998 32.58996253 6 35 C4.68 35 3.36 35 2 35 C-0.39629455 31.40555817 -0.25781331 28.85138348 -0.1953125 24.70703125 C-0.1924826 24.00100266 -0.18965271 23.29497406 -0.18673706 22.56755066 C-0.17555464 20.31569367 -0.1504542 18.06423648 -0.125 15.8125 C-0.11496767 14.28451096 -0.10584226 12.75651567 -0.09765625 11.22851562 C-0.07562172 7.48552337 -0.04110567 3.74282944 0 0 Z " fill="#A9A9AA" transform="translate(387,181)"/>
<path d="M0 0 C0.66 0 1.32 0 2 0 C2.15855469 0.64066406 2.31710937 1.28132812 2.48046875 1.94140625 C4.11072403 7.98505981 6.19124444 12.0589117 10 17 C10 17.66 10 18.32 10 19 C10.66 19 11.32 19 12 19 C12 19.66 12 20.32 12 21 C12.680625 21.268125 13.36125 21.53625 14.0625 21.8125 C17.39710809 23.16053306 20.69743237 24.57536298 24 26 C24 26.66 24 27.32 24 28 C17.87526086 27.68591081 13.53522042 24.91320234 9 21 C3.67200888 14.77391947 -0.4970686 8.45016623 0 0 Z " fill="#8B8B8C" transform="translate(275,155)"/>
<path d="M0 0 C0.66 0.33 1.32 0.66 2 1 C2 2.98 2 4.96 2 7 C-0.60951236 8.30475618 -2.52701285 8.11301572 -5.4453125 8.09765625 C-7.05986328 8.09282227 -7.05986328 8.09282227 -8.70703125 8.08789062 C-9.83496094 8.07951172 -10.96289062 8.07113281 -12.125 8.0625 C-13.26066406 8.05798828 -14.39632813 8.05347656 -15.56640625 8.04882812 C-18.37765638 8.03701615 -21.1888023 8.02054507 -24 8 C-24.66 6.68 -25.32 5.36 -26 4 C-26.66 4 -27.32 4 -28 4 C-28 3.34 -28 2.68 -28 2 C-26.35 1.67 -24.7 1.34 -23 1 C-23 2.65 -23 4.3 -23 6 C-15.41 6 -7.82 6 0 6 C0 4.02 0 2.04 0 0 Z " fill="#959595" transform="translate(353,174)"/>
<path d="M0 0 C0.66 0.33 1.32 0.66 2 1 C1.54109375 1.4846875 1.0821875 1.969375 0.609375 2.46875 C-0.00421875 3.1390625 -0.6178125 3.809375 -1.25 4.5 C-2.15492188 5.47453125 -2.15492188 5.47453125 -3.078125 6.46875 C-7.88071887 12.79411754 -9.63607993 18.64693907 -10.25 26.5 C-10.32734375 27.32242188 -10.4046875 28.14484375 -10.484375 28.9921875 C-10.67054485 30.99351337 -10.83733295 32.99662687 -11 35 C-11.66 35 -12.32 35 -13 35 C-13.37052339 22.83448215 -12.35773769 14.02019534 -5 4 C-2.125 1.375 -2.125 1.375 0 0 Z " fill="#767676" transform="translate(287,118)"/>
<path d="M0 0 C3.58038291 -0.5265269 4.91260597 -0.05644198 8 1.9375 C14.37328491 7.81673182 16.52570586 14.41188029 16.95703125 22.91015625 C16.97121094 23.59980469 16.98539062 24.28945312 17 25 C16.34 25 15.68 25 15 25 C14.92523438 24.39414063 14.85046875 23.78828125 14.7734375 23.1640625 C13.6086531 15.7414168 11.20274416 8.2678652 5.05078125 3.484375 C2.97098175 2.24014371 2.97098175 2.24014371 0 1 C0 0.67 0 0.34 0 0 Z " fill="#7F7F7F" transform="translate(407,120)"/>
<path d="M0 0 C1.32 0.33 2.64 0.66 4 1 C3.01 1 2.02 1 1 1 C0.96995099 7.19389871 0.98530399 13.38539486 1.04272461 19.57910156 C1.05586329 21.68583153 1.05659958 23.79267686 1.04467773 25.89941406 C1.02968738 28.92889373 1.05930956 31.95515893 1.09765625 34.984375 C1.08340103 35.92617615 1.06914581 36.86797729 1.05445862 37.83831787 C1.11152159 40.4163081 1.20987443 42.54402485 2 45 C4.24676028 47.09343439 6.08885985 47.83843341 9 49 C9 49.33 9 49.66 9 50 C5.99403497 50.33399611 4.43645477 50.27687785 1.85253906 48.63769531 C-1.04825522 44.50746582 -0.49376078 40.47032551 -0.390625 35.546875 C-0.38496521 34.53151672 -0.37930542 33.51615845 -0.37347412 32.47003174 C-0.35109753 29.22953999 -0.30089755 25.9901571 -0.25 22.75 C-0.22993671 20.55209931 -0.21168565 18.35418128 -0.1953125 16.15625 C-0.15122871 10.7704555 -0.08430373 5.38530697 0 0 Z " fill="#8D8D8D" transform="translate(388,122)"/>
<path d="M0 0 C0.99 0.33 1.98 0.66 3 1 C3.625 3.875 3.625 3.875 4 7 C2 9 2 9 -0.43017578 9.22705078 C-1.4251709 9.21657715 -2.42016602 9.20610352 -3.4453125 9.1953125 C-4.52167969 9.18886719 -5.59804688 9.18242187 -6.70703125 9.17578125 C-7.83496094 9.15902344 -8.96289062 9.14226562 -10.125 9.125 C-11.26066406 9.11597656 -12.39632812 9.10695312 -13.56640625 9.09765625 C-16.37781299 9.07403098 -19.18880298 9.04109013 -22 9 C-22.33 7.68 -22.66 6.36 -23 5 C-24.32 5.33 -25.64 5.66 -27 6 C-27 5.34 -27 4.68 -27 4 C-25.02 3.67 -23.04 3.34 -21 3 C-20.67 4.32 -20.34 5.64 -20 7 C-13.07 7 -6.14 7 1 7 C1.33 5.35 1.66 3.7 2 2 C1.34 2 0.68 2 0 2 C0 1.34 0 0.68 0 0 Z " fill="#8B8B8C" transform="translate(265,173)"/>
<path d="M0 0 C4.82380802 -0.0246519 9.64757967 -0.04283693 14.47143555 -0.05493164 C16.11369464 -0.05997174 17.75594923 -0.06680378 19.39819336 -0.07543945 C21.75375479 -0.08751926 24.10925709 -0.09323139 26.46484375 -0.09765625 C27.20339096 -0.10281754 27.94193817 -0.10797882 28.7028656 -0.11329651 C30.46898088 -0.1134925 32.23497146 -0.06194719 34 0 C35 1 35 1 35.4375 3.8125 C35 7 35 7 32 9.375 C30.515 10.179375 30.515 10.179375 29 11 C28.67 10.01 28.34 9.02 28 8 C29.98 7.34 31.96 6.68 34 6 C34 4.68 34 3.36 34 2 C22.45 2 10.9 2 -1 2 C-0.67 1.34 -0.34 0.68 0 0 Z " fill="#BABABB" transform="translate(147,135)"/>
<path d="M0 0 C5.39181358 0.63433101 9.24357932 3.06793725 12.875 7.0625 C14 9 14 9 14 12 C14.66 12 15.32 12 16 12 C17.0625 13.8125 17.0625 13.8125 18 16 C17.67 16.99 17.34 17.98 17 19 C16.57589844 18.26394531 16.15179688 17.52789062 15.71484375 16.76953125 C11.50747839 9.76958493 8.01478184 4.67159395 0 2 C0 1.34 0 0.68 0 0 Z " fill="#838383" transform="translate(142,83)"/>
<path d="M0 0 C-1.68635229 1.12423486 -3.37776673 2.24123306 -5.0859375 3.33203125 C-9.54461511 6.21571523 -13.38061723 9.07038443 -17 13 C-18.33333333 14.33333333 -19.66666667 15.66666667 -21 17 C-20.67 15.35 -20.34 13.7 -20 12 C-19.34 12 -18.68 12 -18 12 C-17.64421875 11.12408203 -17.64421875 11.12408203 -17.28125 10.23046875 C-15.72773553 7.5260274 -13.98987769 6.17586626 -11.5 4.3125 C-10.7059375 3.71050781 -9.911875 3.10851562 -9.09375 2.48828125 C-5.82257093 0.16305881 -3.98141751 -0.10477415 0 0 Z " fill="#7B7B7C" transform="translate(117,85)"/>
<path d="M0 0 C2.21577656 1.22441656 4.39409161 2.48718732 6.55078125 3.8125 C4.20262616 4.64187045 3.04853341 5.03419689 0.7265625 4 C0.11167969 3.608125 -0.50320313 3.21625 -1.13671875 2.8125 C-5.76068589 0.26975347 -9.41346112 0.74007013 -14.44921875 1.8125 C-14.44921875 1.1525 -14.44921875 0.4925 -14.44921875 -0.1875 C-9.31044114 -2.83474907 -5.19287185 -2.51775605 0 0 Z " fill="#979798" transform="translate(322.44921875,118.1875)"/>
<path d="M0 0 C0.66 0 1.32 0 2 0 C2.27263672 0.99580078 2.27263672 0.99580078 2.55078125 2.01171875 C3.9185444 6.81642521 5.40319842 10.71527739 8 15 C7.67 15.99 7.34 16.98 7 18 C2.62661422 12.24554503 -0.44157982 7.50685701 0 0 Z " fill="#838384" transform="translate(275,155)"/>
<path d="M0 0 C0.66 0 1.32 0 2 0 C1.83628906 0.96035156 1.67257812 1.92070312 1.50390625 2.91015625 C0.85905182 7.42413725 0.88982338 11.88621642 0.9375 16.4375 C0.94201172 17.26443359 0.94652344 18.09136719 0.95117188 18.94335938 C0.96284189 20.96227146 0.98077282 22.98114574 1 25 C0.34 24.67 -0.32 24.34 -1 24 C-1.02893932 20.37501666 -1.04677792 16.75006287 -1.0625 13.125 C-1.07087891 12.09246094 -1.07925781 11.05992187 -1.08789062 9.99609375 C-1.09111328 9.00996094 -1.09433594 8.02382812 -1.09765625 7.0078125 C-1.10289307 6.09660645 -1.10812988 5.18540039 -1.11352539 4.24658203 C-1 2 -1 2 0 0 Z " fill="#838384" transform="translate(294,130)"/>
<path d="M0 0 C0 2.97 0 5.94 0 9 C0.66 9 1.32 9 2 9 C2 9.66 2 10.32 2 11 C0.68 11 -0.64 11 -2 11 C-2 8.03 -2 5.06 -2 2 C-3.32 2.33 -4.64 2.66 -6 3 C-6.66 2.34 -7.32 1.68 -8 1 C-5.07175348 0.02391783 -3.04386724 -0.08226668 0 0 Z " fill="#9E9E9F" transform="translate(389,104)"/>
<path d="M0 0 C0.66 0.33 1.32 0.66 2 1 C1.52949219 1.51949219 1.05898438 2.03898437 0.57421875 2.57421875 C-2.67440177 6.21294277 -5.69660472 9.66419713 -8 14 C-8.84819206 11.63234732 -9.23923525 10.50796525 -8.14453125 8.18359375 C-5.68749782 4.9627904 -3.4802185 2.19124869 0 0 Z " fill="#838384" transform="translate(287,118)"/>
<path d="M0 0 C0.66 0 1.32 0 2 0 C5.44419134 9.41002278 5.44419134 9.41002278 5 14 C2.96470413 11.96470413 2.3615728 10.76582618 1.375 8.125 C1.11460938 7.44695312 0.85421875 6.76890625 0.5859375 6.0703125 C0 4 0 4 0 0 Z " fill="#7E7E7F" transform="translate(71,142)"/>
<path d="M0 0 C2.62571005 -0.38613383 4.3843879 -0.38493778 6.66796875 1.04296875 C8.3125 2.375 8.3125 2.375 11 5 C11 5.66 11 6.32 11 7 C7.22272911 5.18690997 3.62730178 3.0926741 0 1 C0 0.67 0 0.34 0 0 Z " fill="#919191" transform="translate(407,120)"/>
<path d="M0 0 C0.66 0.33 1.32 0.66 2 1 C2.375 3.75 2.375 3.75 2 7 C-1 9.375 -1 9.375 -4 11 C-4.33 10.01 -4.66 9.02 -5 8 C-3.02 7.34 -1.04 6.68 1 6 C0.67 4.02 0.34 2.04 0 0 Z " fill="#7A7A7B" transform="translate(180,135)"/>
<path d="M0 0 C0.66 0 1.32 0 2 0 C2.12375 0.969375 2.2475 1.93875 2.375 2.9375 C2.684375 4.4534375 2.684375 4.4534375 3 6 C3.66 6.33 4.32 6.66 5 7 C5 7.66 5 8.32 5 9 C1.125 8.125 1.125 8.125 0 7 C-0.04092937 4.66702567 -0.04241723 2.33294775 0 0 Z " fill="#929293" transform="translate(235,109)"/>
<path d="M0 0 C0.66 0.33 1.32 0.66 2 1 C2.33333333 2.66666667 2.66666667 4.33333333 3 6 C3.66 6.33 4.32 6.66 5 7 C5 7.66 5 8.32 5 9 C3.125 8.6875 3.125 8.6875 1 8 C-1 5 -1 5 -0.625 2.3125 C-0.41875 1.549375 -0.2125 0.78625 0 0 Z " fill="#7B7B7B" transform="translate(363,109)"/>
<path d="M0 0 C0.33 0 0.66 0 1 0 C1.20496094 0.69867188 1.40992188 1.39734375 1.62109375 2.1171875 C1.89050781 3.02726563 2.15992188 3.93734375 2.4375 4.875 C2.70433594 5.77992188 2.97117188 6.68484375 3.24609375 7.6171875 C3.92613826 9.98275381 3.92613826 9.98275381 5 12 C3.68 11.67 2.36 11.34 1 11 C-0.17571451 7.32589215 -0.07366746 3.83070817 0 0 Z " fill="#848484" transform="translate(212,156)"/>
<path d="M0 0 C0.928125 0.0825 1.85625 0.165 2.8125 0.25 C2.8125 1.24 2.8125 2.23 2.8125 3.25 C-1.6425 3.745 -1.6425 3.745 -6.1875 4.25 C-4.36434338 1.00883268 -3.82500054 0.30000004 0 0 Z " fill="#868686" transform="translate(342.1875,107.75)"/>
<path d="M0 0 C-0.99 0.66 -1.98 1.32 -3 2 C-4.2375 2.8353125 -4.2375 2.8353125 -5.5 3.6875 C-6.325 4.120625 -7.15 4.55375 -8 5 C-8.99 4.67 -9.98 4.34 -11 4 C-7.20307814 1.17438373 -4.81430721 -0.56638908 0 0 Z " fill="#8E8E8F" transform="translate(117,85)"/>
</svg>
